<svg xmlns="http://www.w3.org/2000/svg" xmlns:xlink="http://www.w3.org/1999/xlink" fill="none" version="1.1" width="6.2316670417785645" height="12.0600004196167" viewBox="0 0 6.2316670417785645 12.0600004196167"><g><path d="M1.280484,0.21982400000000002L5.627,4.56634Q6.23167,5.17101,6.23167,6.03Q6.23167,6.88899,5.627,7.49366L1.280792,11.8399L1.28033,11.8403Q1.174841,11.9458,1.037013,12.0029Q0.899184,12.06,0.75,12.06Q0.6761315,12.06,0.603682,12.0456Q0.5312330000000001,12.0312,0.462987,12.0029Q0.394742,11.9746,0.333322,11.9336Q0.271903,11.8926,0.21967000000000003,11.8403Q0.16743699999999995,11.7881,0.126398,11.7267Q0.08535899999999996,11.6653,0.057089999999999974,11.597Q0.028822000000000014,11.5288,0.014410999999999952,11.4563Q0,11.3839,0,11.31Q0,11.1608,0.057089999999999974,11.023Q0.11418099999999998,10.8852,0.21967000000000003,10.7797L0.220132,10.7792L4.56634,6.433Q4.731669999999999,6.26767,4.731669999999999,6.03Q4.731669999999999,5.79233,4.56634,5.627L0.21982400000000002,1.280484L0.21967000000000003,1.28033Q0.11418099999999998,1.174841,0.057089999999999974,1.037013Q0,0.899184,0,0.75Q0,0.6761315,0.014410999999999952,0.603682Q0.028822000000000014,0.5312330000000001,0.057089999999999974,0.462987Q0.08535899999999996,0.394742,0.126398,0.333322Q0.16743699999999995,0.271903,0.21967000000000003,0.21967000000000003Q0.271903,0.16743699999999995,0.333322,0.126398Q0.394742,0.08535899999999996,0.462987,0.057089999999999974Q0.5312330000000001,0.028822000000000014,0.603682,0.014410999999999952Q0.6761315,0,0.75,0Q0.899184,0,1.037013,0.057089999999999974Q1.174841,0.11418099999999998,1.28033,0.21967000000000003L1.280484,0.21982400000000002Z" fill-rule="evenodd" fill="#9E9E9E" fill-opacity="1"/></g></svg>