<svg xmlns="http://www.w3.org/2000/svg" fill="none" width="14" height="14"><path d="M9.355 5.83L5.552 2.026q-.07-.07-.162-.108-.092-.038-.192-.038t-.191.038q-.092.038-.162.108t-.109.163q-.038.091-.038.19 0 .1.038.192t.109.162l3.803 3.804q.19.19.19.463t-.19.463l-3.803 3.803q-.07.07-.109.163-.038.091-.038.19 0 .1.038.192t.109.162q.07.07.162.109.092.038.191.038.1 0 .192-.038.091-.038.162-.109L9.355 8.17q.483-.483.483-1.17 0-.687-.483-1.17z" fill-rule="evenodd" fill="#FFF" fill-opacity=".5"/></svg>
