<svg xmlns="http://www.w3.org/2000/svg" xmlns:xlink="http://www.w3.org/1999/xlink" fill="none" version="1.1" width="23.99795150756836" height="18.66059112548828" viewBox="0 0 23.99795150756836 18.66059112548828"><g><path d="M2.91914,6.16646L23.1314,6.16646C23.6151,6.16646,23.998,6.54934,23.998,7.03299C23.998,7.1539,23.9778,7.25466,23.9173,7.37557L21.3581,15.7587L20.3908,15.7587C20.0683,14.7108,19.0809,13.9451,17.9323,13.9451C16.7836,13.9451,15.7962,14.7108,15.4737,15.7587L10.6977,15.7587C10.3552,14.7108,9.38788,13.9451,8.21907,13.9451C7.07042,13.9451,6.10313,14.7108,5.76055,15.7587L5.09554,15.7587L2.11307,6.16646L1.75034,5.11856L0.58153,5.11856C0.380011,5.11856,0.13819,4.9372,0.0777341,4.73568L0.0172786,4.53416C-0.0431769,4.33264,0.0575822,4.15128,0.279252,4.15128L1.87125,4.15128C2.07276,4.15128,2.29444,4.33264,2.35489,4.53416L2.41535,4.71553L2.91914,6.16646ZM17.9323,14.3884C19.1212,14.3884,20.0683,15.3355,20.0683,16.5245C20.0683,17.7135,19.1212,18.6606,17.9323,18.6606C16.7433,18.6606,15.7962,17.7135,15.7962,16.5245C15.7962,15.3355,16.7433,14.3884,17.9323,14.3884ZM17.9323,15.9804C18.2345,15.9804,18.4764,16.2222,18.4764,16.5245C18.4764,16.8268,18.2345,17.0686,17.9323,17.0686C17.63,17.0686,17.3882,16.8268,17.3882,16.5245C17.3882,16.2222,17.63,15.9804,17.9323,15.9804ZM3.94688,5.68282L7.03012,2.86156L9.30727,5.32008L13.922,0L17.4486,4.05052L20.8341,2.11594L22.8695,5.15887L22.9904,5.68282L3.94688,5.68282ZM8.21907,14.3884C9.40803,14.3884,10.3753,15.3355,10.3753,16.5245C10.3753,17.7135,9.40803,18.6606,8.21907,18.6606C7.05027,18.6606,6.08298,17.7135,6.08298,16.5245C6.08298,15.3355,7.05027,14.3884,8.21907,14.3884ZM8.21907,15.9804C8.52135,15.9804,8.76317,16.2222,8.76317,16.5245C8.76317,16.8268,8.52135,17.0686,8.21907,17.0686C7.93695,17.0686,7.67497,16.8268,7.67497,16.5245C7.67497,16.2222,7.93695,15.9804,8.21907,15.9804Z" fill="#4E4E4E" fill-opacity="1"/></g></svg>