<svg xmlns="http://www.w3.org/2000/svg" xmlns:xlink="http://www.w3.org/1999/xlink" fill="none" version="1.1" width="13.200000762939453" height="24" viewBox="0 0 13.200000762939453 24"><defs><linearGradient x1="0.5" y1="0" x2="0.5" y2="0.998099684715271" id="master_svg0_1_00908"><stop offset="0%" stop-color="#CACACA" stop-opacity="1"/><stop offset="100%" stop-color="#787878" stop-opacity="1"/></linearGradient></defs><g><path d="M6.96442,23.4924L13.0554,10.8036C13.3157,10.2961,13.2116,9.64351,12.8472,9.28097C12.743,9.13595,12.5869,9.06345,12.4307,9.06345L7.64119,9.06345L7.64119,1.08761C7.64119,0.507553,7.27678,0,6.8603,0C6.6,0,6.3397,0.217523,6.23558,0.507553L0.144594,13.1964C-0.115705,13.7039,-0.0115853,14.3565,0.352833,14.719C0.456952,14.864,0.613131,14.9366,0.769311,14.9366L5.55881,14.9366L5.55881,22.9124C5.55881,23.4924,5.92322,24,6.3397,24C6.6,24,6.8603,23.7825,6.96442,23.4924L6.96442,23.4924Z" fill-rule="evenodd" fill="url(#master_svg0_1_00908)" fill-opacity="1"/></g></svg>