<svg xmlns="http://www.w3.org/2000/svg" xmlns:xlink="http://www.w3.org/1999/xlink" fill="none" version="1.1" width="24.00712776184082" height="21.470020294189453" viewBox="0 0 24.00712776184082 21.470020294189453"><g><path d="M13.8131,9.62696L10.098,9.62696C8.0794,9.75273,6.52453,11.457,6.58401,13.4786L6.58401,20.976C6.57805,21.1088,6.62751,21.238,6.72055,21.3329C6.81601,21.4266,6.94627,21.4761,7.07985,21.4694L16.8408,21.4694C16.9735,21.4754,17.1028,21.4259,17.1977,21.3329C17.2934,21.2397,17.3433,21.1092,17.3342,20.976L17.3342,13.4786C17.3897,11.4558,15.8328,9.75267,13.8131,9.62696ZM4.50248,12.6187L2.99343,12.6187C1.38159,12.6316,0.0762729,13.9316,0.0567633,15.5434L0.0567633,20.9568C0.051474,21.0888,0.100875,21.217,0.193297,21.3113C0.283897,21.4025,0.407317,21.4534,0.535828,21.4527L4.45936,21.4527L4.45936,21.4694C4.735,21.4802,4.95865,21.2487,4.93843,20.9736L4.93843,13.1649C4.9846,13.0249,4.94748,12.8708,4.84262,12.7672C4.76098,12.6643,4.6335,12.6086,4.50248,12.6187ZM20.9272,12.5756L19.4181,12.5756C19.3128,12.5756,19.1211,12.6187,19.0708,12.7241C19.0126,12.8478,18.9816,12.9826,18.9798,13.1193L18.9798,20.9281C18.9691,21.0609,19.0163,21.1919,19.1092,21.2874C19.204,21.3804,19.3333,21.4299,19.4661,21.4239L23.3704,21.467C23.5032,21.473,23.6325,21.4235,23.7273,21.3305C23.8226,21.236,23.8723,21.1051,23.8639,20.9712L23.8639,15.5434C23.8745,13.9121,22.5585,12.5822,20.9272,12.5756ZM23.7273,9.74194C24.5879,7.72264,23.3814,5.42161,21.231,4.98103C19.0807,4.54045,17.0665,6.18158,17.0635,8.3766C17.0396,10.2837,18.5768,11.8436,20.4841,11.8474C21.8922,11.8686,23.1735,11.0367,23.7273,9.74194ZM5.24024,5.41598C3.37306,4.31409,0.96385,5.17333,0.215353,7.2081C-0.533144,9.24287,0.744966,11.4585,2.88111,11.8292C5.01725,12.2,6.96719,10.5446,6.9481,8.3766C6.94851,7.15552,6.29748,6.02696,5.24024,5.41598ZM11.9567,8.82692C14.8576,8.84262,16.984,6.10259,16.2487,3.29641C15.5134,0.490233,12.3165,-0.854907,9.79609,0.581361C7.27567,2.01763,6.80338,5.45365,8.8428,7.51668C9.66554,8.3497,10.7859,8.82112,11.9567,8.82692Z" fill="#4E4E4E" fill-opacity="1"/></g></svg>