<svg xmlns="http://www.w3.org/2000/svg" fill="none" width="30" height="30"><defs><clipPath id="prefix__a"><rect width="30" height="30" rx="0"/></clipPath></defs><g clip-path="url(#prefix__a)"><path d="M11.25 19.125h7.5a4.125 4.125 0 014.125 4.125v1.875a2.25 2.25 0 01-2.25 2.25H9.375a2.25 2.25 0 01-2.25-2.25V23.25a4.125 4.125 0 014.125-4.125zM13.875 3.75h1.875a4.875 4.875 0 014.875 4.875v2.625a4.875 4.875 0 01-4.875 4.875h-1.875A4.875 4.875 0 019 11.25V8.625a4.875 4.875 0 014.875-4.875z" fill="#EBA02E"/><path d="M20.483 15.75c1.02-1.008 1.642-2.343 1.642-3.807V7.932a5.218 5.218 0 00-1-3.057h.25A4.875 4.875 0 0126.25 9.75v1.125a4.875 4.875 0 01-4.875 4.875h-.892zM8.499 4.876C7.867 5.76 7.5 6.807 7.5 7.932v4.011c0 1.464.622 2.8 1.643 3.807h-.518a4.875 4.875 0 01-4.875-4.875V9.75A4.875 4.875 0 018.5 4.876zM24.356 25.5c.012-.123.019-.249.019-.375V23.25a5.623 5.623 0 00-2.817-4.875h3.005a3.563 3.563 0 013.562 3.563v1.312a2.25 2.25 0 01-2.25 2.25h-1.519zM8.441 18.375a5.624 5.624 0 00-2.816 4.875v1.875c0 .257.026.508.075.75H4.125a2.25 2.25 0 01-2.25-2.25v-1.5a3.75 3.75 0 013.75-3.75h2.817z" fill="#EBA02E" opacity=".3"/></g></svg>
