<svg xmlns="http://www.w3.org/2000/svg" xmlns:xlink="http://www.w3.org/1999/xlink" fill="none" version="1.1" width="18.005346298217773" height="16.102516174316406" viewBox="0 0 18.005346298217773 16.102516174316406"><g><path d="M10.3598,7.22022L7.57346,7.22022C6.05955,7.31455,4.8934,8.59279,4.93801,10.109L4.93801,15.732C4.93354,15.8316,4.97063,15.9285,5.04041,15.9997C5.11201,16.0699,5.2097,16.107,5.30988,16.1021L12.6306,16.1021C12.7302,16.1065,12.8271,16.0695,12.8983,15.9997C12.97,15.9298,13.0075,15.8319,13.0007,15.732L13.0007,10.109C13.0423,8.59188,11.8746,7.3145,10.3598,7.22022ZM3.37686,9.46404L2.24507,9.46404C1.03619,9.47373,0.0572047,10.4487,0.0425725,11.6576L0.0425725,15.7176C0.0386055,15.8166,0.075656,15.9128,0.144972,15.9835C0.212922,16.0519,0.305488,16.0901,0.401871,16.0895L3.34452,16.0895L3.34452,16.1021C3.55125,16.1101,3.71899,15.9365,3.70382,15.7302L3.70382,9.87364C3.73845,9.76865,3.71061,9.65311,3.63196,9.57542C3.57073,9.49819,3.47512,9.45645,3.37686,9.46404ZM15.6954,9.4317L14.5636,9.4317C14.4846,9.4317,14.3408,9.46404,14.3031,9.54308C14.2595,9.63589,14.2362,9.73696,14.2349,9.8395L14.2349,15.6961C14.2268,15.7957,14.2622,15.8939,14.3319,15.9655C14.403,16.0353,14.5,16.0724,14.5995,16.0679L17.5278,16.1003C17.6274,16.1047,17.7243,16.0677,17.7955,15.9979C17.8669,15.927,17.9043,15.8288,17.8979,15.7284L17.8979,11.6576C17.9059,10.4341,16.9189,9.43664,15.6954,9.4317ZM17.7955,7.30645C18.4409,5.79198,17.536,4.06621,15.9233,3.73577C14.3105,3.40534,12.7998,4.63619,12.7977,6.28245C12.7797,7.71276,13.9326,8.88268,15.3631,8.88557C16.4191,8.90142,17.3801,8.27756,17.7955,7.30645ZM3.93018,4.06199C2.52979,3.23557,0.722887,3.88,0.161515,5.40607C-0.399858,6.93215,0.558724,8.59387,2.16083,8.87193C3.76293,9.14998,5.22539,7.90844,5.21108,6.28245C5.21138,5.36664,4.72311,4.52022,3.93018,4.06199ZM8.96754,6.62019C11.1432,6.63196,12.738,4.57694,12.1865,2.47231C11.635,0.367675,9.23737,-0.64118,7.34706,0.436021C5.45676,1.51322,5.10254,4.09024,6.6321,5.63751C7.24916,6.26227,8.08944,6.61584,8.96754,6.62019Z" fill="#FFFFFF" fill-opacity="1"/></g></svg>