<svg xmlns="http://www.w3.org/2000/svg" xmlns:xlink="http://www.w3.org/1999/xlink" fill="none" version="1.1" width="50" height="49" viewBox="0 0 50 49"><g><g><path d="M25,49Q25.6014,49,26.2022,48.9705Q26.8029,48.941,27.4014,48.882Q28,48.8231,28.5949,48.7348Q29.1898,48.6466,29.7797,48.5292Q30.3696,48.4119,30.953,48.2658Q31.5364,48.1196,32.111999999999995,47.945Q32.6875,47.7704,33.2538,47.5678Q33.8201,47.3652,34.3757,47.135Q34.9314,46.9049,35.4751,46.6477Q36.0188,46.3906,36.5492,46.1071Q37.0796,45.8235,37.5955,45.5143Q38.1114,45.2051,38.6115,44.871Q39.1115,44.5369,39.5946,44.1786Q40.0777,43.8203,40.5426,43.4388Q41.0075,43.0572,41.4532,42.6533Q41.8988,42.2494,42.3241,41.8241Q42.7494,41.3988,43.1533,40.9532Q43.5572,40.5075,43.9388,40.0426Q44.3203,39.5777,44.6786,39.0946Q45.0369,38.6115,45.371,38.1115Q45.7051,37.6114,46.0143,37.0955Q46.3235,36.5796,46.6071,36.0492Q46.8906,35.5188,47.1477,34.9751Q47.4049,34.4314,47.635,33.8757Q47.8652,33.3201,48.0678,32.7538Q48.2704,32.1875,48.445,31.612Q48.6196,31.0364,48.7658,30.453Q48.9119,29.8696,49.0292,29.2797Q49.1466,28.6898,49.2348,28.0949Q49.3231,27.5,49.382,26.9014Q49.441,26.3029,49.4705,25.7022Q49.5,25.1014,49.5,24.5Q49.5,23.8986,49.4705,23.2978Q49.441,22.6971,49.382,22.0986Q49.3231,21.5,49.2348,20.9051Q49.1466,20.3102,49.0292,19.7203Q48.9119,19.1304,48.7658,18.547Q48.6196,17.9636,48.445,17.388Q48.2704,16.8125,48.0678,16.2462Q47.8652,15.6799,47.635,15.1243Q47.4049,14.5686,47.1477,14.0249Q46.8906,13.4812,46.6071,12.9508Q46.3235,12.4204,46.0143,11.9045Q45.7051,11.3886,45.371,10.8885Q45.0369,10.3884,44.6786,9.90537Q44.3203,9.42228,43.9388,8.95736Q43.5572,8.49244,43.1533,8.04681Q42.7494,7.60117,42.3241,7.17588Q41.8988,6.7506,41.4532,6.3467Q41.0075,5.94279,40.5426,5.56124Q40.0777,5.17969,39.5946,4.82141Q39.1115,4.46314,38.6115,4.12899Q38.1114,3.79485,37.5955,3.48565Q37.0796,3.17645,36.5492,2.89293Q36.0188,2.60941,35.4751,2.35226Q34.9314,2.09511,34.3757,1.86495Q33.8201,1.63479,33.2538,1.43217Q32.6875,1.22955,32.111999999999995,1.05496Q31.5364,0.880372,30.953,0.734234Q30.3696,0.588096,29.7797,0.470761Q29.1898,0.353425,28.5949,0.265175Q28,0.176926,27.4014,0.117974Q26.8029,0.0590226,26.2022,0.0295113Q25.6014,0,25,0Q24.3986,0,23.7978,0.0295113Q23.1971,0.0590226,22.5986,0.117974Q22,0.176926,21.4051,0.265175Q20.8102,0.353425,20.2203,0.470761Q19.6304,0.588096,19.047,0.734234Q18.4636,0.880372,17.888,1.05496Q17.3125,1.22955,16.7462,1.43217Q16.1799,1.63479,15.6243,1.86495Q15.0686,2.09511,14.5249,2.35226Q13.9812,2.60941,13.4508,2.89293Q12.9204,3.17645,12.4045,3.48565Q11.8886,3.79485,11.3885,4.12899Q10.8884,4.46314,10.40537,4.82141Q9.92228,5.17969,9.45736,5.56124Q8.99244,5.94279,8.54681,6.3467Q8.10117,6.7506,7.67588,7.17588Q7.2506,7.60117,6.8467,8.0468Q6.44279,8.49244,6.06124,8.95736Q5.67969,9.42228,5.32141,9.90536Q4.96314,10.3884,4.62899,10.8885Q4.29485,11.3886,3.98565,11.9045Q3.67645,12.4204,3.39293,12.9508Q3.10941,13.4812,2.85226,14.0249Q2.59511,14.5686,2.3649500000000003,15.1243Q2.1347899999999997,15.6799,1.93217,16.2462Q1.72955,16.8125,1.55496,17.388Q1.380372,17.9636,1.234234,18.547Q1.088096,19.1304,0.970761,19.7203Q0.853425,20.3102,0.7651749999999999,20.9051Q0.676926,21.5,0.617974,22.0986Q0.5590226,22.6971,0.5295113,23.2978Q0.5,23.8986,0.5,24.5Q0.5,25.1014,0.5295113,25.7022Q0.5590226,26.3029,0.617974,26.9014Q0.676926,27.5,0.7651749999999999,28.0949Q0.853425,28.6898,0.970761,29.2797Q1.088096,29.8696,1.234234,30.453Q1.380372,31.0364,1.55496,31.612Q1.72955,32.1875,1.93217,32.7538Q2.1347899999999997,33.3201,2.3649500000000003,33.8757Q2.59511,34.4314,2.85226,34.9751Q3.10941,35.5188,3.39293,36.0492Q3.67645,36.5796,3.98565,37.0955Q4.29485,37.6114,4.62899,38.1115Q4.96314,38.6115,5.32141,39.0946Q5.67969,39.5777,6.06124,40.0426Q6.44279,40.5075,6.8467,40.9532Q7.2506,41.3988,7.67588,41.8241Q8.10117,42.2494,8.5468,42.6533Q8.99244,43.0572,9.45736,43.4388Q9.92228,43.8203,10.40536,44.1786Q10.8884,44.5369,11.3885,44.871Q11.8886,45.2051,12.4045,45.5143Q12.9204,45.8235,13.4508,46.1071Q13.9812,46.3906,14.5249,46.6477Q15.0686,46.9049,15.6243,47.135Q16.1799,47.3652,16.7462,47.5678Q17.3125,47.7704,17.888,47.945Q18.4636,48.1196,19.047,48.2658Q19.6304,48.4119,20.2203,48.5292Q20.8102,48.6466,21.4051,48.7348Q22,48.8231,22.5986,48.882Q23.1971,48.941,23.7978,48.9705Q24.3986,49,25,49ZM22.5713,34.3968C21.6688,34.8955,20.5573,35.1448,19.2366,35.1448L13.1724,35.1448L13.1724,14.0241L17.8609,14.0241L17.8609,32.7908L20.2161,32.7908C20.8691,32.7908,21.4249,32.5597,21.8834,32.0977C22.342,31.6357,22.5713,31.0894,22.5713,30.4587L22.5713,14.0241L27.2597,14.0241L27.2597,32.7908L29.615,32.7908C30.2533,32.7908,30.8017,32.5597,31.2603,32.0977C31.7189,31.6357,31.9482,31.0894,31.9482,30.4587L31.9482,14.0241L36.6586,14.0241L36.6586,27.1256C36.6586,29.311,35.8717,31.1939,34.2979,32.7743Q31.9372,35.1448,28.6355,35.1448L22.5713,35.1448L22.5713,34.3968Z" fill-rule="evenodd" fill="#FFFFFF" fill-opacity="1"/></g></g></svg>
