<svg xmlns="http://www.w3.org/2000/svg" fill="none" width="42" height="42"><path d="M0 40.688c0 .656.53 1.18 1.457 1.18v-.13c.928 0 1.855-.263 1.855-1.575-.132-7.482 2.253-13.52 11.262-16.67 2.12 1.05 3.842 1.576 6.095 1.576a13.47 13.47 0 006.624-1.706c1.458.525 2.518 1.18 3.578 1.706.265.131.53.262.662.262.663-.131.928-.394 1.193-.787.132-.394.132-.656.132-.919 0-.394-.397-.656-.53-.787-.133-.132-.397-.263-.662-.394a21.66 21.66 0 00-1.723-.788l-.132-.131.132-.131c1.193-1.182 2.12-2.363 2.65-3.806.662-1.444 1.06-3.282 1.06-4.988C33.653 5.513 27.823 0 20.8 0 13.647 0 8.082 5.775 8.082 12.731c0 3.413 1.192 6.432 3.71 8.925l-.133-.131C3.71 24.937 0 30.319 0 40.688zM20.536 2.756c-5.564 0-10.202 4.594-10.202 9.975 0 5.513 4.505 9.975 10.202 9.975 2.65 0 5.3-1.05 7.022-2.756 1.06-1.05 1.723-2.1 2.253-3.15.53-1.181.927-2.494.927-4.069 0-5.381-4.637-9.975-10.202-9.975zM34.183 42c-.663 0-1.457-.656-1.457-1.444v-4.725h-4.77c-.663 0-1.458-.656-1.458-1.444 0-.656.663-1.443 1.458-1.443h4.902v-4.725c0-.656.663-1.444 1.457-1.444.663 0 1.458.656 1.458 1.444v4.856h4.77c.662 0 1.457.656 1.457 1.444 0 .656-.663 1.444-1.458 1.444h-4.77v4.725c-.132.787-.794 1.312-1.589 1.312z" fill-rule="evenodd" fill="#DCDCDC" opacity=".8"/></svg>
