<svg xmlns="http://www.w3.org/2000/svg" xmlns:xlink="http://www.w3.org/1999/xlink" fill="none" version="1.1" width="33" height="33" viewBox="0 0 33 33"><g><g style="opacity:0.26318359375;"><ellipse cx="16.5" cy="16.5" rx="16.5" ry="16.5" fill="#D8D8D8" fill-opacity="1"/></g><g><g><path d="M13.301741,9.63875L20.68017,16.499679999999998L13.301741,23.3612C13.0555734,23.5901,12.9493089,23.9339,13.0229762,24.2631C13.0966436,24.5923,13.339051,24.8569,13.658886,24.9573C13.97872,25.0576,14.32739,24.9784,14.57356,24.7495L22.6982,17.19415C22.89058,17.015349999999998,23,16.76368,23,16.49999C23,16.23631,22.89058,15.984639999999999,22.6982,15.80584L14.57356,8.250448C14.19302,7.896635,13.599821,7.9205956,13.248618,8.303965C12.897415,8.687334,12.9211989,9.28494,13.301741,9.63875L13.301741,9.63875Z" fill="#000000" fill-opacity="1"/></g></g></g></svg>