<svg xmlns="http://www.w3.org/2000/svg" xmlns:xlink="http://www.w3.org/1999/xlink" fill="none" version="1.1" width="16" height="16" viewBox="0 0 16 16"><defs><clipPath id="master_svg0_20_02623"><rect x="0" y="0" width="16" height="16" rx="0"/></clipPath></defs><g clip-path="url(#master_svg0_20_02623)"><g><path d="M3.640164375,4.6391878124999995Q1.833984375,6.4453678125,1.833984375,8.9996778125Q1.833984375,11.5539778125,3.640164375,13.3602078125Q5.446344375,15.1663078125,8.000654375,15.1663078125Q10.554964375,15.1663078125,12.361184375,13.3602078125Q14.167284375,11.5539878125,14.167284375,8.9996778125Q14.167284375,6.4453678125,12.361184375,4.6391878124999995Q10.554954375,2.8330078125,8.000654375,2.8330078125Q5.446344375,2.8330078125,3.640164375,4.6391878124999995ZM4.347274375,12.6530578125Q2.833984375,11.1397678125,2.833984375,8.9996778125Q2.833984375,6.8595778124999995,4.347274375,5.3462978125Q5.8605543749999995,3.8330078125,8.000654375,3.8330078125Q10.140744375,3.8330078125,11.654034375,5.3462978125Q13.167284375,6.8595778124999995,13.167284375,8.9996778125Q13.167284375,11.1397678125,11.654034375,12.6530578125Q10.140744375,14.1663078125,8.000654375,14.1663078125Q5.8605543749999995,14.1663078125,4.347274375,12.6530578125Z" fill-rule="evenodd" fill="#5B5B5B" fill-opacity="1"/></g><g><path d="M6,0.8330078125L10,0.8330078125Q10.04925,0.8330078125,10.09755,0.8426148124999999Q10.14584,0.8522228125,10.19134,0.8710678125Q10.23684,0.8899138125,10.27778,0.9172728125Q10.31873,0.9446328125,10.35355,0.9794548125Q10.38837,1.0142768125,10.41573,1.0552228125Q10.44309,1.0961688125,10.46194,1.1416658124999999Q10.48078,1.1871628125,10.49039,1.2354627125Q10.5,1.2837621125,10.5,1.3330078125Q10.5,1.3822535125,10.49039,1.4305529125Q10.48078,1.4788528125,10.46194,1.5243498125000001Q10.44309,1.5698468125,10.41573,1.6107928125Q10.38837,1.6517388125,10.35355,1.6865608125Q10.31873,1.7213828125,10.27778,1.7487428125Q10.23684,1.7761018124999999,10.19134,1.7949478125Q10.14584,1.8137928125,10.09755,1.8234008125Q10.04925,1.8330078125,10,1.8330078125L6,1.8330078125Q5.9507543,1.8330078125,5.9024549,1.8234008125Q5.854155,1.8137928125,5.808658,1.7949478125Q5.763161,1.7761018124999999,5.722215,1.7487428125Q5.681269,1.7213828125,5.646447,1.6865608125Q5.611625,1.6517388125,5.584265,1.6107928125Q5.556906,1.5698468125,5.53806,1.5243498125000001Q5.519215,1.4788528125,5.509607,1.4305529125Q5.5,1.3822535125,5.5,1.3330078125Q5.5,1.2837621125,5.509607,1.2354627125Q5.519215,1.1871628125,5.53806,1.1416658124999999Q5.556906,1.0961688125,5.584265,1.0552228125Q5.611625,1.0142768125,5.646447,0.9794548125Q5.681269,0.9446328125,5.722215,0.9172728125Q5.763161,0.8899138125,5.808658,0.8710678125Q5.854155,0.8522228125,5.9024549,0.8426148124999999Q5.9507543,0.8330078125,6,0.8330078125Z" fill-rule="evenodd" fill="#5B5B5B" fill-opacity="1"/></g><g><path d="M7.5,6.3330078125Q7.5,6.2837621125,7.509607,6.2354627125Q7.519215,6.1871628125,7.53806,6.1416658125Q7.556906,6.0961688125,7.584265,6.0552228125Q7.611625,6.0142768125,7.646447,5.9794548125Q7.681269,5.9446328125,7.722215,5.9172728125Q7.763161,5.8899138125,7.808658,5.8710678125Q7.854155,5.8522228125,7.9024549,5.8426148125Q7.9507543,5.8330078125,8,5.8330078125Q8.0492457,5.8330078125,8.0975451,5.8426148125Q8.145845,5.8522228125,8.191342,5.8710678125Q8.236839,5.8899138125,8.277785,5.9172728125Q8.318731,5.9446328125,8.353553,5.9794548125Q8.388375,6.0142768125,8.415735,6.0552228125Q8.443094,6.0961688125,8.46194,6.1416658125Q8.480785000000001,6.1871628125,8.490393,6.2354627125Q8.5,6.2837621125,8.5,6.3330078125L8.5,8.9996778125Q8.5,9.048917812500001,8.490393,9.0972178125Q8.480785000000001,9.1455178125,8.46194,9.1910178125Q8.443094,9.2365178125,8.415735,9.2774578125Q8.388375,9.3184078125,8.353553,9.3532278125Q8.318731,9.3880478125,8.277785,9.4154078125Q8.236839,9.4427678125,8.191342,9.4616178125Q8.145845,9.4804578125,8.0975451,9.4900678125Q8.0492457,9.4996778125,8,9.4996778125Q7.9507543,9.4996778125,7.9024549,9.4900678125Q7.854155,9.4804578125,7.808658,9.4616178125Q7.763161,9.4427678125,7.722215,9.4154078125Q7.681269,9.3880478125,7.646447,9.3532278125Q7.611625,9.3184078125,7.584265,9.2774578125Q7.556906,9.2365178125,7.53806,9.1910178125Q7.519215,9.1455178125,7.509607,9.0972178125Q7.5,9.048917812500001,7.5,8.9996778125L7.5,6.3330078125Z" fill-rule="evenodd" fill="#5B5B5B" fill-opacity="1"/></g><g><path d="M8,8.5L10.66667,8.5Q10.715910000000001,8.5,10.76421,8.509607Q10.81251,8.519214999999999,10.85801,8.53806Q10.90351,8.556906,10.94445,8.584265Q10.9854,8.611625,11.02022,8.646447Q11.05504,8.681269,11.0824,8.722215Q11.10976,8.763161,11.12861,8.808658Q11.14745,8.854155,11.15706,8.9024549Q11.16667,8.9507543,11.16667,9Q11.16667,9.0492457,11.15706,9.0975451Q11.14745,9.145845,11.12861,9.191342Q11.10976,9.236839,11.0824,9.277785Q11.05504,9.318731,11.02022,9.353553Q10.9854,9.388375,10.94445,9.415735Q10.90351,9.443094,10.85801,9.46194Q10.81251,9.480785000000001,10.76421,9.490393Q10.715910000000001,9.5,10.66667,9.5L8,9.5Q7.9507543,9.5,7.9024549,9.490393Q7.854155,9.480785000000001,7.808658,9.46194Q7.763161,9.443094,7.722215,9.415735Q7.681269,9.388375,7.646447,9.353553Q7.611625,9.318731,7.584265,9.277785Q7.556906,9.236839,7.53806,9.191342Q7.519215,9.145845,7.509607,9.0975451Q7.5,9.0492457,7.5,9Q7.5,8.9507543,7.509607,8.9024549Q7.519215,8.854155,7.53806,8.808658Q7.556906,8.763161,7.584265,8.722215Q7.611625,8.681269,7.646447,8.646447Q7.681269,8.611625,7.722215,8.584265Q7.763161,8.556906,7.808658,8.53806Q7.854155,8.519214999999999,7.9024549,8.509607Q7.9507543,8.5,8,8.5Z" fill-rule="evenodd" fill="#5B5B5B" fill-opacity="1"/></g><g><path d="M9,1.3330078125L9,2.6663378125Q9,2.7648278125,8.980785000000001,2.8614278124999997Q8.96157,2.9580278125,8.923879,3.0490278125000003Q8.886188,3.1400178125,8.83147,3.2219078125Q8.776751,3.3038078125,8.707107,3.3734478125Q8.637463,3.4430878125,8.55557,3.4978078125Q8.473678,3.5525278125,8.382683,3.5902178125Q8.291689,3.6279078125,8.19509,3.6471278125Q8.0984914,3.6663378125,8,3.6663378125Q7.9015086,3.6663378125,7.80491,3.6471278125Q7.708311,3.6279078125,7.617317,3.5902178125Q7.526322,3.5525278125,7.44443,3.4978078125Q7.362537,3.4430878125,7.292893,3.3734478125Q7.223249,3.3038078125,7.16853,3.2219078125Q7.113812,3.1400178125,7.076121,3.0490278125000003Q7.03843,2.9580278125,7.019215,2.8614278124999997Q7,2.7648278125,7,2.6663378125L7,1.3330078125Q7,1.2345164125,7.019215,1.1379178125Q7.03843,1.0413188125000001,7.076121,0.9503248125Q7.113812,0.8593298125,7.16853,0.7774378125Q7.223249,0.6955448125,7.292893,0.6259008125Q7.362537,0.5562568125,7.44443,0.5015378125Q7.526322,0.4468198125,7.617317,0.4091288125Q7.708311,0.37143781249999996,7.80491,0.3522228125Q7.9015086,0.3330078125,8,0.3330078125Q8.0984914,0.3330078125,8.19509,0.3522228125Q8.291689,0.37143781249999996,8.382683,0.4091288125Q8.473678,0.4468198125,8.55557,0.5015378125Q8.637463,0.5562568125,8.707107,0.6259008125Q8.776751,0.6955448125,8.83147,0.7774378125Q8.886188,0.8593298125,8.923879,0.9503248125Q8.96157,1.0413188125000001,8.980785000000001,1.1379178125Q9,1.2345164125,9,1.3330078125Z" fill-rule="evenodd" fill="#5B5B5B" fill-opacity="1"/></g></g></svg>