<svg xmlns="http://www.w3.org/2000/svg" fill="none" width="23" height="26"><path d="M21.056 5.06L13.067.453a3.4 3.4 0 00-3.387 0L1.694 5.06A3.39 3.39 0 000 7.988v9.213a3.39 3.39 0 001.694 2.929l7.988 4.606a3.4 3.4 0 003.388 0l7.986-4.606A3.393 3.393 0 0022.75 17.2V7.988a3.39 3.39 0 00-1.694-2.928zm.6 12.141c0 .815-.44 1.577-1.146 1.984l-7.988 4.607a2.304 2.304 0 01-2.294 0L2.24 19.185a2.302 2.302 0 01-1.145-1.984V7.988c0-.815.439-1.576 1.145-1.984l7.988-4.606a2.287 2.287 0 012.29 0l7.99 4.606a2.298 2.298 0 011.145 1.984v9.213h.002zm-4.936-.188a.546.546 0 00.205-1.051l-4.39-1.852V7.145a.546.546 0 00-1.091 0v7.327l.003.009c0 .07.014.137.04.2.016.036.041.067.064.098.02.028.03.056.053.078.051.05.11.093.178.121l4.724 1.993c.07.028.144.042.214.042z" fill-rule="evenodd" fill="#4F4F4F"/></svg>
