<svg xmlns="http://www.w3.org/2000/svg" xmlns:xlink="http://www.w3.org/1999/xlink" fill="none" version="1.1" width="48" height="48" viewBox="0 0 48 48"><defs><clipPath id="master_svg0_20_05362"><rect x="0" y="0" width="48" height="48" rx="24"/></clipPath></defs><g clip-path="url(#master_svg0_20_05362)"><rect x="0" y="0" width="48" height="48" rx="24" fill="#FFFFFF" fill-opacity="0.05999999865889549"/><g><g><g><path d="M23.25,16.05810546875Q23.25,15.98423696875,23.264411,15.91178746875Q23.278822,15.83933846875,23.30709,15.77109246875Q23.335359,15.70284746875,23.376398000000002,15.64142746875Q23.417437,15.58000846875,23.46967,15.52777546875Q23.521903000000002,15.47554246875,23.583322,15.43450346875Q23.644742,15.39346446875,23.712987,15.36519546875Q23.781233,15.33692746875,23.853682,15.322516468749999Q23.9261315,15.30810546875,24,15.30810546875Q24.0738685,15.30810546875,24.146318,15.322516468749999Q24.218767,15.33692746875,24.287013,15.36519546875Q24.355258,15.39346446875,24.416678,15.43450346875Q24.478096999999998,15.47554246875,24.53033,15.52777546875Q24.582563,15.58000846875,24.623601999999998,15.64142746875Q24.664641,15.70284746875,24.69291,15.77109246875Q24.721178,15.83933846875,24.735589,15.91178746875Q24.75,15.98423696875,24.75,16.05810546875L24.75,30.08310546875Q24.75,30.15700546875,24.735589,30.229405468750002Q24.721178,30.30190546875,24.69291,30.370105468749998Q24.664641,30.43840546875,24.623601999999998,30.49980546875Q24.582563,30.56120546875,24.53033,30.613405468750003Q24.478096999999998,30.665705468749998,24.416678,30.706705468750002Q24.355258,30.74770546875,24.287013,30.77600546875Q24.218767,30.80430546875,24.146318,30.81870546875Q24.0738685,30.83310546875,24,30.83310546875Q23.9261315,30.83310546875,23.853682,30.81870546875Q23.781233,30.80430546875,23.712987,30.77600546875Q23.644742,30.74770546875,23.583322,30.706705468750002Q23.521903000000002,30.665705468749998,23.46967,30.613405468750003Q23.417437,30.56120546875,23.376398000000002,30.49980546875Q23.335359,30.43840546875,23.30709,30.370105468749998Q23.278822,30.30190546875,23.264411,30.229405468750002Q23.25,30.15700546875,23.25,30.08310546875L23.25,16.05810546875Z" fill-rule="evenodd" fill="#FFFFFF" fill-opacity="1"/></g><g transform="matrix(0,-1,1,0,-6.1240234375,40.1005859375)"><path d="M16.23828125,23.1123046875Q16.23828125,23.0384361875,16.25269225,22.9659866875Q16.26710325,22.8935376875,16.29537125,22.8252916875Q16.32364025,22.7570466875,16.364679250000002,22.6956266875Q16.40571825,22.634207687500002,16.45795125,22.5819746875Q16.510184250000002,22.5297416875,16.57160325,22.488702687500002Q16.63302325,22.4476636875,16.70126825,22.4193946875Q16.76951425,22.3911266875,16.84196325,22.3767156875Q16.91441275,22.3623046875,16.98828125,22.3623046875Q17.06214975,22.3623046875,17.13459925,22.3767156875Q17.20704825,22.3911266875,17.27529425,22.4193946875Q17.34353925,22.4476636875,17.40495925,22.488702687500002Q17.466378249999998,22.5297416875,17.51861125,22.5819746875Q17.57084425,22.634207687500002,17.611883249999998,22.6956266875Q17.65292225,22.7570466875,17.68119125,22.8252916875Q17.70945925,22.8935376875,17.72387025,22.9659866875Q17.73828125,23.0384361875,17.73828125,23.1123046875L17.73828125,37.1373046875Q17.73828125,37.2112046875,17.72387025,37.2836046875Q17.70945925,37.3561046875,17.68119125,37.4243046875Q17.65292225,37.4926046875,17.611883249999998,37.5540046875Q17.57084425,37.6154046875,17.51861125,37.6676046875Q17.466378249999998,37.7199046875,17.40495925,37.7609046875Q17.34353925,37.8019046875,17.27529425,37.8302046875Q17.20704825,37.8585046875,17.13459925,37.8729046875Q17.06214975,37.8873046875,16.98828125,37.8873046875Q16.91441275,37.8873046875,16.84196325,37.8729046875Q16.76951425,37.8585046875,16.70126825,37.8302046875Q16.63302325,37.8019046875,16.57160325,37.7609046875Q16.510184250000002,37.7199046875,16.45795125,37.6676046875Q16.40571825,37.6154046875,16.364679250000002,37.5540046875Q16.32364025,37.4926046875,16.29537125,37.4243046875Q16.26710325,37.3561046875,16.25269225,37.2836046875Q16.23828125,37.2112046875,16.23828125,37.1373046875L16.23828125,23.1123046875Z" fill-rule="evenodd" fill="#FFFFFF" fill-opacity="1"/></g><g transform="matrix(-1,-1.2246469849340659e-16,1.2246469849340659e-16,-1,68,66)" style="opacity:0;"></g></g></g></g></svg>