<svg xmlns="http://www.w3.org/2000/svg" xmlns:xlink="http://www.w3.org/1999/xlink" fill="none" version="1.1" width="22" height="22" viewBox="0 0 22 22"><defs><clipPath id="master_svg0_20_05321"><rect x="0" y="0" width="22" height="22" rx="0"/></clipPath></defs><g clip-path="url(#master_svg0_20_05321)"><g><path d="M17.405556640625,4.5941442187499995C13.873756640625,1.06171621875,8.126686640625,1.06171621875,4.594866640625,4.5941442187499995C1.062453640625,8.12592421875,1.062453640625,13.87302421875,4.594866640625,17.40482421875C8.126676640625,20.93722421875,13.873756640625,20.93722421875,17.405556640625,17.40482421875C20.937956640625,13.87302421875,20.937956640625,8.12592421875,17.405556640625,4.5941442187499995ZM16.486156640624998,16.485424218749998C13.461256640625,19.51102421875,8.538526640625001,19.51042421875,5.514256640625,16.485424218749998C2.488648640625,13.46042421875,2.488648640625,8.538454218750001,5.514256640625,5.513174218750001C8.538546640625,2.48852621875,13.461256640625,2.48788821875,16.486156640624998,5.513174218750001C19.511156640625,8.53781421875,19.511156640625,13.46112421875,16.486156640624998,16.485424218749998Z" fill="#FFFFFF" fill-opacity="1"/></g><g><path d="M15.500076406249999,11.20454515625L11.07328640625,11.20454515625L11.07390640625,6.30721115625C11.07390640625,5.98227215625,10.80830040625,5.71728515625,10.48305240625,5.71728515625C10.15780540625,5.71728515625,9.89345651825,5.98227215625,9.89345651825,6.30721115625L9.89345651825,11.35852515625C9.89345651825,11.37646515625,9.87169150625,11.79866515625,10.15329840625,12.09887515625C10.33230040625,12.28814515625,10.58381040625,12.38437515625,10.90844640625,12.38437515625L15.50009640625,12.38505515625C15.82538640625,12.38505515625,16.09032640625,12.12070515625,16.09032640625,11.794775156250001C16.09028640625,11.470785156249999,15.82597640625,11.20645515625,15.500076406249999,11.20454515625Z" fill="#FFFFFF" fill-opacity="1"/></g></g></svg>