<svg xmlns="http://www.w3.org/2000/svg" xmlns:xlink="http://www.w3.org/1999/xlink" fill="none" version="1.1" width="48" height="48" viewBox="0 0 48 48"><defs><clipPath id="master_svg0_20_05181"><rect x="0" y="0" width="48" height="48" rx="24"/></clipPath></defs><g clip-path="url(#master_svg0_20_05181)"><rect x="0" y="0" width="48" height="48" rx="24" fill="#FFFFFF" fill-opacity="0.05999999865889549"/><g><g><g><g><path d="M18.41107625,26.555476484375Q18.30558725,26.449987484375,18.24849625,26.312159484375Q18.19140625,26.174330484375,18.19140625,26.025146484375Q18.19140625,25.951277984375,18.20581725,25.878828484375Q18.22022825,25.806379484375,18.24849625,25.738133484375Q18.27676525,25.669888484375,18.317804250000002,25.608468484375Q18.35884325,25.547049484375002,18.41107625,25.494816484375Q18.463309250000002,25.442583484375,18.52472825,25.401544484375002Q18.58614825,25.360505484375,18.65439325,25.332236484375Q18.72263925,25.303968484375,18.79508825,25.289557484375Q18.86753775,25.275146484375,18.94140625,25.275146484375Q19.09059025,25.275146484375,19.22841925,25.332236484375Q19.36624725,25.389327484375,19.47173625,25.494816484375L23.999736249999998,30.022816484375L28.52727625,25.495278484375L28.52774625,25.494816484375Q28.63322625,25.389327484375,28.77105625,25.332236484375Q28.908886250000002,25.275146484375,29.05810625,25.275146484375Q29.13190625,25.275146484375,29.204406249999998,25.289557484375Q29.27680625,25.303968484375,29.34510625,25.332236484375Q29.413306249999998,25.360505484375,29.47470625,25.401544484375002Q29.53620625,25.442583484375,29.58840625,25.494816484375Q29.640606249999998,25.547049484375002,29.681706249999998,25.608468484375Q29.72270625,25.669888484375,29.75100625,25.738133484375Q29.77920625,25.806379484375,29.79370625,25.878828484375Q29.80810625,25.951277984375,29.80810625,26.025146484375Q29.80810625,26.174330484375,29.75100625,26.312159484375Q29.693906249999998,26.449987484375,29.58840625,26.555476484375L29.58790625,26.555938484375L24.53006625,31.613806484375Q24.47783625,31.666046484375002,24.41641625,31.707076484375Q24.35499625,31.748116484375,24.28675625,31.776386484375Q24.21850625,31.804656484375002,24.14605625,31.819066484375Q24.07360625,31.833476484374998,23.999736249999998,31.833476484374998Q23.92586625,31.833476484374998,23.85342625,31.819066484375Q23.780976250000002,31.804656484375002,23.71272625,31.776386484375Q23.64447625,31.748116484375,23.58306625,31.707076484375Q23.52164625,31.666046484375002,23.46940625,31.613806484375L18.41107625,26.555476484375Z" fill-rule="evenodd" fill="#FFFFFF" fill-opacity="1"/></g><g><path d="M23.25,16.916748046875Q23.25,16.842879546875,23.264411,16.770430046875Q23.278822,16.697981046875,23.30709,16.629735046875Q23.335359,16.561490046875,23.376398000000002,16.500070046875Q23.417437,16.438651046875002,23.46967,16.386418046875Q23.521903000000002,16.334185046875,23.583322,16.293146046875002Q23.644742,16.252107046875,23.712987,16.223838046875Q23.781233,16.195570046875,23.853682,16.181159046875Q23.9261315,16.166748046875,24,16.166748046875Q24.0738685,16.166748046875,24.146318,16.181159046875Q24.218767,16.195570046875,24.287013,16.223838046875Q24.355258,16.252107046875,24.416678,16.293146046875002Q24.478096999999998,16.334185046875,24.53033,16.386418046875Q24.582563,16.438651046875002,24.623601999999998,16.500070046875Q24.664641,16.561490046875,24.69291,16.629735046875Q24.721178,16.697981046875,24.735589,16.770430046875Q24.75,16.842879546875,24.75,16.916748046875L24.75,30.941748046875Q24.75,31.015648046875,24.735589,31.088048046875002Q24.721178,31.160548046875,24.69291,31.228748046874998Q24.664641,31.297048046875,24.623601999999998,31.358448046875Q24.582563,31.419848046875,24.53033,31.472048046875003Q24.478096999999998,31.524348046874998,24.416678,31.565348046875002Q24.355258,31.606348046875,24.287013,31.634648046875Q24.218767,31.662948046875,24.146318,31.677348046875Q24.0738685,31.691748046875,24,31.691748046875Q23.9261315,31.691748046875,23.853682,31.677348046875Q23.781233,31.662948046875,23.712987,31.634648046875Q23.644742,31.606348046875,23.583322,31.565348046875002Q23.521903000000002,31.524348046874998,23.46967,31.472048046875003Q23.417437,31.419848046875,23.376398000000002,31.358448046875Q23.335359,31.297048046875,23.30709,31.228748046874998Q23.278822,31.160548046875,23.264411,31.088048046875002Q23.25,31.015648046875,23.25,30.941748046875L23.25,16.916748046875Z" fill-rule="evenodd" fill="#FFFFFF" fill-opacity="1"/></g><g transform="matrix(-1,-1.2246469849340659e-16,1.2246469849340659e-16,-1,68,68)" style="opacity:0;"></g></g></g></g></g></svg>