<svg xmlns="http://www.w3.org/2000/svg" xmlns:xlink="http://www.w3.org/1999/xlink" fill="none" version="1.1" width="48" height="48" viewBox="0 0 48 48"><defs><clipPath id="master_svg0_20_05158"><rect x="0" y="0" width="48" height="48" rx="24"/></clipPath></defs><g clip-path="url(#master_svg0_20_05158)"><rect x="0" y="0" width="48" height="48" rx="24" fill="#FFFFFF" fill-opacity="0.05999999865889549"/><g><g><g><g><path d="M23.469650390625,15.38617390625L18.411320390625,20.44450390625Q18.305831390625,20.549993906250002,18.248740390625,20.68782390625Q18.191650390625,20.82565390625,18.191650390625,20.974833906249998Q18.191650390625,21.04870390625,18.206061390625,21.12115390625Q18.220472390625,21.19360390625,18.248740390625,21.26185390625Q18.277009390625,21.33009390625,18.318048390625002,21.39151390625Q18.359087390625,21.45293390625,18.411320390625,21.50516390625Q18.463553390625002,21.557403906250002,18.524972390625,21.59843390625Q18.586392390625,21.63947390625,18.654637390625,21.66774390625Q18.722883390625,21.696013906250002,18.795332390625,21.71042390625Q18.867781890625,21.724833906249998,18.941650390625,21.724833906249998Q19.090834390625,21.724833906249998,19.228663390625,21.66774390625Q19.366491390625,21.61065390625,19.471980390625,21.50516390625L23.999980390624998,16.97716390625L28.527600390625,21.50478390625L28.527990390625,21.50516390625Q28.633470390625,21.61065390625,28.771300390625,21.66774390625Q28.909130390625002,21.724833906249998,29.058350390625,21.724833906249998Q29.132150390625,21.724833906249998,29.204650390624998,21.71042390625Q29.277050390625,21.696013906250002,29.345350390625,21.66774390625Q29.413550390624998,21.63947390625,29.474950390625,21.59843390625Q29.536450390625,21.557403906250002,29.588650390625,21.50516390625Q29.640850390624998,21.45293390625,29.681950390624998,21.39151390625Q29.722950390625,21.33009390625,29.751250390625,21.26184390625Q29.779450390625,21.19360390625,29.793950390625,21.12115390625Q29.808350390625,21.04870390625,29.808350390625,20.974833906249998Q29.808350390625,20.82565390625,29.751250390625,20.68782390625Q29.694150390624998,20.549993906250002,29.588650390625,20.44450390625L29.588250390625,20.44412390625L24.530310390625,15.38617390625Q24.478080390625,15.33394090625,24.416660390625,15.29290190625Q24.355240390625,15.25186290625,24.287000390625,15.22359390625Q24.218750390625,15.19532590625,24.146300390625,15.180914906249999Q24.073850390625,15.16650390625,23.999980390624998,15.16650390625Q23.926110390625,15.16650390625,23.853670390625,15.180914906249999Q23.781220390625002,15.19532590625,23.712970390625,15.22359390625Q23.644720390625,15.25186290625,23.583310390625,15.29290190625Q23.521890390625,15.33394090625,23.469650390625,15.38617390625Z" fill-rule="evenodd" fill="#FFFFFF" fill-opacity="1"/></g><g><path d="M23.25,16.05810546875Q23.25,15.98423696875,23.264411,15.91178746875Q23.278822,15.83933846875,23.30709,15.77109246875Q23.335359,15.70284746875,23.376398000000002,15.64142746875Q23.417437,15.58000846875,23.46967,15.52777546875Q23.521903000000002,15.47554246875,23.583322,15.43450346875Q23.644742,15.39346446875,23.712987,15.36519546875Q23.781233,15.33692746875,23.853682,15.322516468749999Q23.9261315,15.30810546875,24,15.30810546875Q24.0738685,15.30810546875,24.146318,15.322516468749999Q24.218767,15.33692746875,24.287013,15.36519546875Q24.355258,15.39346446875,24.416678,15.43450346875Q24.478096999999998,15.47554246875,24.53033,15.52777546875Q24.582563,15.58000846875,24.623601999999998,15.64142746875Q24.664641,15.70284746875,24.69291,15.77109246875Q24.721178,15.83933846875,24.735589,15.91178746875Q24.75,15.98423696875,24.75,16.05810546875L24.75,30.08310546875Q24.75,30.15700546875,24.735589,30.229405468750002Q24.721178,30.30190546875,24.69291,30.370105468749998Q24.664641,30.43840546875,24.623601999999998,30.49980546875Q24.582563,30.56120546875,24.53033,30.613405468750003Q24.478096999999998,30.665705468749998,24.416678,30.706705468750002Q24.355258,30.74770546875,24.287013,30.77600546875Q24.218767,30.80430546875,24.146318,30.81870546875Q24.0738685,30.83310546875,24,30.83310546875Q23.9261315,30.83310546875,23.853682,30.81870546875Q23.781233,30.80430546875,23.712987,30.77600546875Q23.644742,30.74770546875,23.583322,30.706705468750002Q23.521903000000002,30.665705468749998,23.46967,30.613405468750003Q23.417437,30.56120546875,23.376398000000002,30.49980546875Q23.335359,30.43840546875,23.30709,30.370105468749998Q23.278822,30.30190546875,23.264411,30.229405468750002Q23.25,30.15700546875,23.25,30.08310546875L23.25,16.05810546875Z" fill-rule="evenodd" fill="#FFFFFF" fill-opacity="1"/></g><g transform="matrix(-1,-1.2246469849340659e-16,1.2246469849340659e-16,-1,68,66)" style="opacity:0;"></g></g></g></g></g></svg>