<svg xmlns="http://www.w3.org/2000/svg" xmlns:xlink="http://www.w3.org/1999/xlink" fill="none" version="1.1" width="48" height="48" viewBox="0 0 48 48"><defs><clipPath id="master_svg0_20_05157"><rect x="0" y="0" width="48" height="48" rx="24"/></clipPath></defs><g clip-path="url(#master_svg0_20_05157)"><rect x="0" y="0" width="48" height="48" rx="24" fill="#FFFFFF" fill-opacity="0.05999999865889549"/><g><g><g transform="matrix(-1,-1.2246469849340659e-16,1.2246469849340659e-16,-1,68,66)" style="opacity:0;"></g></g><g><g><path d="M18,21.025L31,21.025Q31.0591,21.025,31.1171,21.036529Q31.175,21.048058,31.229599999999998,21.070672Q31.2842,21.093287,31.3333,21.126118Q31.3825,21.15895,31.424300000000002,21.200736Q31.466,21.242522,31.4989,21.291657999999998Q31.5317,21.340793,31.554299999999998,21.39539Q31.576900000000002,21.449986,31.5885,21.507946Q31.6,21.5659052,31.6,21.625Q31.6,21.6840948,31.5885,21.742054Q31.576900000000002,21.800014,31.554299999999998,21.85461Q31.5317,21.909207,31.4989,21.958342000000002Q31.466,22.007478,31.424300000000002,22.049264Q31.3825,22.09105,31.3333,22.123882Q31.2842,22.156713,31.229599999999998,22.179328Q31.175,22.201942,31.1171,22.213471Q31.0591,22.225,31,22.225L18,22.225Q17.9409052,22.225,17.882946,22.213471Q17.824986,22.201942,17.77039,22.179328Q17.715793,22.156713,17.666657999999998,22.123882Q17.617522,22.09105,17.575736,22.049264Q17.53395,22.007478,17.501118,21.958342000000002Q17.468287,21.909207,17.445672,21.85461Q17.423058,21.800014,17.411529,21.742054Q17.4,21.6840948,17.4,21.625Q17.4,21.5659052,17.411529,21.507946Q17.423058,21.449986,17.445672,21.39539Q17.468287,21.340793,17.501118,21.291657999999998Q17.53395,21.242522,17.575736,21.200736Q17.617522,21.15895,17.666657999999998,21.126118Q17.715793,21.093287,17.77039,21.070672Q17.824986,21.048058,17.882946,21.036529Q17.9409052,21.025,18,21.025Z" fill-rule="evenodd" fill="#FFFFFF" fill-opacity="1"/></g><g><path d="M18,24.775L31,24.775Q31.0591,24.775,31.1171,24.786529Q31.175,24.798058,31.229599999999998,24.820672Q31.2842,24.843287,31.3333,24.876118Q31.3825,24.90895,31.424300000000002,24.950736Q31.466,24.992522,31.4989,25.041657999999998Q31.5317,25.090793,31.554299999999998,25.14539Q31.576900000000002,25.199986,31.5885,25.257946Q31.6,25.3159052,31.6,25.375Q31.6,25.4340948,31.5885,25.492054Q31.576900000000002,25.550014,31.554299999999998,25.60461Q31.5317,25.659207,31.4989,25.708342000000002Q31.466,25.757478,31.424300000000002,25.799264Q31.3825,25.84105,31.3333,25.873882Q31.2842,25.906713,31.229599999999998,25.929328Q31.175,25.951942,31.1171,25.963471Q31.0591,25.975,31,25.975L18,25.975Q17.9409052,25.975,17.882946,25.963471Q17.824986,25.951942,17.77039,25.929328Q17.715793,25.906713,17.666657999999998,25.873882Q17.617522,25.84105,17.575736,25.799264Q17.53395,25.757478,17.501118,25.708342000000002Q17.468287,25.659207,17.445672,25.60461Q17.423058,25.550014,17.411529,25.492054Q17.4,25.4340948,17.4,25.375Q17.4,25.3159052,17.411529,25.257946Q17.423058,25.199986,17.445672,25.14539Q17.468287,25.090793,17.501118,25.041657999999998Q17.53395,24.992522,17.575736,24.950736Q17.617522,24.90895,17.666657999999998,24.876118Q17.715793,24.843287,17.77039,24.820672Q17.824986,24.798058,17.882946,24.786529Q17.9409052,24.775,18,24.775Z" fill-rule="evenodd" fill="#FFFFFF" fill-opacity="1"/></g><g><path d="M25.002282224212646,16.422229Q24.918820224212645,16.337965,24.873696224212647,16.228283Q24.828571224212645,16.118602,24.828571224212645,16Q24.828571224212645,15.9409052,24.840100224212648,15.882946Q24.851629224212648,15.824985999999999,24.874243224212645,15.77039Q24.896858224212647,15.715793,24.929689224212648,15.666658Q24.962521224212647,15.617522,25.004307224212646,15.575736Q25.046093224212647,15.53395,25.095229224212645,15.501118Q25.144364224212648,15.468287,25.198961224212646,15.445672Q25.253557224212646,15.423058,25.311517224212647,15.411529Q25.369476424212646,15.4,25.428571224212646,15.4Q25.548665224212648,15.4,25.659507224212646,15.446223Q25.770348224212647,15.492446,25.854860224212647,15.577771L31.426291224212648,21.20277Q31.509751224212646,21.28703,31.554871224212647,21.396720000000002Q31.600001224212647,21.5064,31.600001224212647,21.625Q31.600001224212647,21.68409,31.588471224212647,21.74205Q31.576941224212646,21.80001,31.554321224212647,21.85461Q31.531711224212646,21.90921,31.498881224212646,21.95834Q31.46605122421265,22.00748,31.424261224212646,22.04926Q31.382481224212647,22.09105,31.333341224212646,22.12388Q31.284201224212644,22.15671,31.229611224212647,22.17933Q31.175011224212646,22.20194,31.117051224212645,22.21347Q31.059091224212647,22.225,31.000001224212646,22.225Q30.879901224212645,22.225,30.769061224212646,22.17878Q30.658221224212646,22.132550000000002,30.573711224212644,22.04723L25.002282224212646,16.422229Z" fill-rule="evenodd" fill="#FFFFFF" fill-opacity="1"/></g><g><path d="M17.573711,25.797229Q17.490249,25.712965,17.445125,25.603283Q17.4,25.493602,17.4,25.375Q17.4,25.3159052,17.411529,25.257946Q17.423058,25.199986,17.445672,25.14539Q17.468287,25.090793,17.501118,25.041657999999998Q17.53395,24.992522,17.575736,24.950736Q17.617522,24.90895,17.666657999999998,24.876118Q17.715793,24.843287,17.77039,24.820672Q17.824986,24.798058,17.882946,24.786529Q17.9409052,24.775,18,24.775Q18.120094,24.775,18.230936,24.821223Q18.341777,24.867446,18.426289,24.952771L23.99772,30.57777Q24.08118,30.66203,24.1263,30.771720000000002Q24.17143,30.8814,24.17143,31Q24.17143,31.05909,24.1599,31.11705Q24.14837,31.17501,24.12575,31.22961Q24.10314,31.28421,24.07031,31.33334Q24.037480000000002,31.38248,23.99569,31.42426Q23.95391,31.46605,23.90477,31.49888Q23.855629999999998,31.53171,23.80104,31.55433Q23.74644,31.57694,23.68848,31.58847Q23.63052,31.6,23.57143,31.6Q23.45133,31.6,23.34049,31.55378Q23.22965,31.507550000000002,23.145139999999998,31.42223L17.573711,25.797229Z" fill-rule="evenodd" fill="#FFFFFF" fill-opacity="1"/></g></g></g></g></svg>