<svg xmlns="http://www.w3.org/2000/svg" xmlns:xlink="http://www.w3.org/1999/xlink" fill="none" version="1.1" width="506" height="506" viewBox="0 0 506 506"><defs><filter id="master_svg0_1_3075" filterUnits="objectBoundingBox" color-interpolation-filters="sRGB" x="-224" y="-224" width="618" height="618"><feFlood flood-opacity="0" result="BackgroundImageFix"/><feBlend mode="normal" in="SourceGraphic" in2="BackgroundImageFix" result="shape"/><feGaussianBlur stdDeviation="56" result="effect1_foregroundBlur"/></filter><filter id="master_svg1_1_3047" filterUnits="objectBoundingBox" color-interpolation-filters="sRGB" x="-20" y="-20" width="318" height="318"><feFlood flood-opacity="0" result="BackgroundImageFix"/><feBlend mode="normal" in="SourceGraphic" in2="BackgroundImageFix" result="shape"/><feGaussianBlur stdDeviation="5" result="effect1_foregroundBlur"/></filter><linearGradient x1="0.5" y1="0" x2="0.5" y2="0.3679600954055786" id="master_svg2_1_0666"><stop offset="0%" stop-color="#13F287" stop-opacity="1"/><stop offset="46.92407548427582%" stop-color="#33226C" stop-opacity="1"/><stop offset="99.99995231628418%" stop-color="#292929" stop-opacity="0"/></linearGradient></defs><g><g style="opacity:0.20000000298023224;" filter="url(#master_svg0_1_3075)"><ellipse cx="253" cy="253" rx="85" ry="85" fill="#13F287" fill-opacity="1"/></g><g filter="url(#master_svg1_1_3047)"><path d="M275 139Q275 111.947 264.648 86.955Q254.295 61.9623 235.167 42.8335Q216.038 23.7049 191.045 13.3524Q166.052 3 139 3Q111.948 3.00002 86.9551 13.3524Q61.9622 23.7048 42.8335 42.8335Q23.7048 61.9622 13.3524 86.9551Q3 111.948 3 139L0 139Q0 111.351 10.5807 85.807Q21.1615 60.2629 40.7121 40.7122Q60.2628 21.1615 85.807 10.5807Q111.351 1.54253e-05 139 0Q166.649 0 192.193 10.5807Q217.737 21.1616 237.288 40.7122Q256.838 60.2628 267.419 85.807Q278 111.351 278 139L275 139Z" stroke="url(#master_svg2_1_0666)" fill-opacity="0" fill="none" stroke-width="3"/></g></g></svg>