<svg xmlns="http://www.w3.org/2000/svg" xmlns:xlink="http://www.w3.org/1999/xlink" fill="none" version="1.1" width="48" height="48" viewBox="0 0 48 48"><defs><clipPath id="master_svg0_20_05170"><rect x="0" y="0" width="48" height="48" rx="24"/></clipPath><clipPath id="master_svg1_20_02065"><rect x="13" y="13" width="22" height="22" rx="0"/></clipPath></defs><g clip-path="url(#master_svg0_20_05170)"><rect x="0" y="0" width="48" height="48" rx="24" fill="#FFFFFF" fill-opacity="0.05999999865889549"/><g clip-path="url(#master_svg1_20_02065)"><g><path d="M32.85,30.875L32.85,17.125Q32.85,16.306926,32.2715,15.7284666Q31.6931,15.15,30.875,15.15L17.125,15.15Q16.30693,15.15,15.7284648,15.7284648Q15.15,16.30693,15.15,17.125L15.15,30.875Q15.15,31.6931,15.7284672,32.2715Q16.306929,32.85,17.125,32.85L30.875,32.85Q31.6931,32.85,32.2715,32.2715Q32.85,31.6931,32.85,30.875ZM31.423000000000002,16.576991Q31.65,16.80398,31.65,17.125L31.65,30.875Q31.65,31.195999999999998,31.423000000000002,31.423000000000002Q31.195999999999998,31.65,30.875,31.65L17.125,31.65Q16.80398,31.65,16.576991,31.423000000000002Q16.35,31.195999999999998,16.35,30.875L16.35,17.125Q16.35,16.80399,16.576993,16.576993Q16.80399,16.35,17.125,16.35L30.875,16.35Q31.195999999999998,16.35,31.423000000000002,16.576991Z" fill-rule="evenodd" fill="#FFFFFF" fill-opacity="1"/></g><g><path d="M29.006945625,22.13257698828125Q29.091335625,22.04818598828125,29.137005625,21.93792298828125Q29.182685624999998,21.82765998828125,29.182685624999998,21.70831298828125Q29.182685624999998,21.64921818828125,29.171155625,21.59125898828125Q29.159625625,21.53329898828125,29.137005625,21.47870298828125Q29.114395625,21.42410598828125,29.081565625,21.374970988281248Q29.048735625,21.32583498828125,29.006945625,21.28404898828125Q28.965155625,21.24226298828125,28.916025625,21.20943098828125Q28.866885625000002,21.17659998828125,28.812295625,21.15398498828125Q28.757695625,21.13137098828125,28.699735625000002,21.11984198828125Q28.641775625,21.10831298828125,28.582685625,21.10831298828125Q28.463335625,21.10831298828125,28.353075625000002,21.15398498828125Q28.242805625000003,21.19965698828125,28.158415625,21.28404898828125L28.158025625,21.28444198828125L25.047215625,24.39524298828125L23.603625625,21.86896298828125Q23.544415625,21.76534038828125,23.450055625,21.69226548828125Q23.355695625,21.61919048828125,23.240555625,21.58778798828125Q23.125405625,21.55638598828125,23.007015625,21.57143698828125Q22.888625625,21.58648798828125,22.784995625,21.64570038828125Q22.715235625,21.68556558828125,22.658415625,21.74238228828125L18.991906625,25.40889298828125L18.991751625,25.40905298828125Q18.907360625,25.49344298828125,18.861687625,25.60370298828125Q18.816015625,25.71396298828125,18.816015625,25.83331298828125Q18.816015625,25.89240298828125,18.827544625,25.95036298828125Q18.839073625,26.00832298828125,18.861687625,26.06292298828125Q18.884302625,26.11752298828125,18.917133625,26.16665298828125Q18.949965625,26.21579298828125,18.991751625,26.25757298828125Q19.033537625,26.29936298828125,19.082673624999998,26.33219298828125Q19.131808625,26.36502298828125,19.186405625,26.38764298828125Q19.241001625,26.41025298828125,19.298961625,26.42178298828125Q19.356920825,26.43331298828125,19.416015625,26.43331298828125Q19.535362625,26.43331298828125,19.645625625,26.38764298828125Q19.755888625,26.34197298828125,19.840279625,26.25757298828125L19.840434625,26.25742298828125L22.951475625,23.14638298828125L24.395065625,25.67266298828125Q24.434935625,25.74242298828125,24.491755625,25.79924298828125Q24.533535625,25.84103298828125,24.582675625,25.87386298828125Q24.631805625,25.90669298828125,24.686405625,25.92930298828125Q24.741005625,25.95192298828125,24.798965625,25.96345298828125Q24.856915625,25.97498298828125,24.916015625,25.97498298828125Q24.975105625,25.97498298828125,25.033065625,25.96345298828125Q25.091025625,25.95192298828125,25.145625625,25.92930298828125Q25.200225625,25.90669298828125,25.249355625,25.87386298828125Q25.298495625,25.84103298828125,25.340275625,25.79924298828125L29.006555625,22.13296998828125L29.006945625,22.13257698828125L29.006945625,22.13257698828125Z" fill-rule="evenodd" fill="#FFFFFF" fill-opacity="1"/></g></g></g></svg>