<svg xmlns="http://www.w3.org/2000/svg" xmlns:xlink="http://www.w3.org/1999/xlink" fill="none" version="1.1" width="40" height="40" viewBox="0 0 40 40"><defs><linearGradient x1="0.7009785771369934" y1="1" x2="0" y2="-0.3235282599925995" id="master_svg0_1_13720"><stop offset="0%" stop-color="#121212" stop-opacity="1"/><stop offset="98.57142567634583%" stop-color="#D8D8D8" stop-opacity="0.1599999964237213"/></linearGradient></defs><g><g><g><ellipse cx="19.999998092651367" cy="20" rx="19.999998092651367" ry="20" fill="url(#master_svg0_1_13720)" fill-opacity="1"/></g></g><g><g><path d="M14.166015625,20.624998092651367L25.832715625,20.624998092651367Q25.894215625,20.624998092651367,25.954615625000002,20.612989092651368Q26.015015625,20.600980092651366,26.071815625,20.57742309265137Q26.128715624999998,20.55386609265137,26.179915625,20.519666092651367Q26.231115625,20.485467092651366,26.274615625,20.441940092651368Q26.318115625,20.398412092651366,26.352315625,20.347229092651368Q26.386515625,20.296046092651366,26.410115625,20.23917509265137Q26.433615625,20.182304092651368,26.445715625,20.121929092651367Q26.457715625,20.06155519265137,26.457715625,19.999998092651367Q26.457715625,19.938440992651365,26.445715625,19.878067092651367Q26.433615625,19.817692092651367,26.410115625,19.760821092651366Q26.386515625,19.703950092651368,26.352315625,19.652767092651366Q26.318115625,19.60158409265137,26.274615625,19.558056092651366Q26.231115625,19.51452909265137,26.179915625,19.480330092651368Q26.128715624999998,19.446130092651366,26.071815625,19.422573092651366Q26.015015625,19.39901609265137,25.954615625000002,19.387007092651366Q25.894215625,19.374998092651367,25.832715625,19.374998092651367L14.166015625,19.374998092651367Q14.104458525,19.374998092651367,14.044084625,19.387007092651366Q13.983709625,19.39901609265137,13.926838625,19.422573092651366Q13.869967625,19.446130092651366,13.818784625,19.480330092651368Q13.767601625,19.51452909265137,13.724073625,19.558056092651366Q13.680546625,19.60158409265137,13.646347625,19.652767092651366Q13.612147625,19.703950092651368,13.588590625,19.760821092651366Q13.565033625,19.817692092651367,13.553024625,19.878067092651367Q13.541015625,19.938440992651365,13.541015625,19.999998092651367Q13.541015625,20.06155519265137,13.553024625,20.121929092651367Q13.565033625,20.182304092651368,13.588590625,20.23917509265137Q13.612147625,20.296046092651366,13.646347625,20.347229092651368Q13.680546625,20.398412092651366,13.724073625,20.441940092651368Q13.767601625,20.485467092651366,13.818784625,20.519666092651367Q13.869967625,20.55386609265137,13.926838625,20.57742309265137Q13.983709625,20.600980092651366,14.044084625,20.612989092651368Q14.104458525,20.624998092651367,14.166015625,20.624998092651367Z" fill-rule="evenodd" fill="#A0A0A0" fill-opacity="1"/></g><g><path d="M19.375,14.166665077209473L19.375,25.83336507720947Q19.375,25.894865077209474,19.387009,25.955265077209475Q19.399018,26.015665077209473,19.422575,26.072465077209472Q19.446132,26.12936507720947,19.480332,26.180565077209472Q19.514531,26.231765077209474,19.558058,26.275265077209472Q19.601586,26.318765077209473,19.652769,26.352965077209472Q19.703952,26.387165077209474,19.760823,26.410765077209472Q19.817694,26.434265077209474,19.878069,26.44636507720947Q19.9384429,26.45836507720947,20,26.45836507720947Q20.0615571,26.45836507720947,20.121931,26.44636507720947Q20.182306,26.434265077209474,20.239177,26.410765077209472Q20.296048,26.387165077209474,20.347231,26.352965077209472Q20.398414,26.318765077209473,20.441942,26.275265077209472Q20.485469,26.231765077209474,20.519668,26.180565077209472Q20.553868,26.12936507720947,20.577425,26.072465077209472Q20.600982,26.015665077209473,20.612991,25.955265077209475Q20.625,25.894865077209474,20.625,25.83336507720947L20.625,14.166665077209473Q20.625,14.105107977209473,20.612991,14.044734077209473Q20.600982,13.984359077209472,20.577425,13.927488077209473Q20.553868,13.870617077209472,20.519668,13.819434077209472Q20.485469,13.768251077209472,20.441942,13.724723077209473Q20.398414,13.681196077209473,20.347231,13.646997077209473Q20.296048,13.612797077209473,20.239177,13.589240077209473Q20.182306,13.565683077209473,20.121931,13.553674077209473Q20.0615571,13.541665077209473,20,13.541665077209473Q19.9384429,13.541665077209473,19.878069,13.553674077209473Q19.817694,13.565683077209473,19.760823,13.589240077209473Q19.703952,13.612797077209473,19.652769,13.646997077209473Q19.601586,13.681196077209473,19.558058,13.724723077209473Q19.514531,13.768251077209472,19.480332,13.819434077209472Q19.446132,13.870617077209472,19.422575,13.927488077209473Q19.399018,13.984359077209472,19.387009,14.044734077209473Q19.375,14.105107977209473,19.375,14.166665077209473Z" fill-rule="evenodd" fill="#A0A0A0" fill-opacity="1"/></g></g></g></svg>