<svg xmlns="http://www.w3.org/2000/svg" xmlns:xlink="http://www.w3.org/1999/xlink" fill="none" version="1.1" width="710" height="162.37353515625" viewBox="0 0 710 162.37353515625"><defs><filter id="master_svg0_1_9702" filterUnits="objectBoundingBox" color-interpolation-filters="sRGB" x="-18" y="-11" width="716" height="168.37353515625"><feFlood flood-opacity="0" result="BackgroundImageFix"/><feColorMatrix in="SourceAlpha" type="matrix" values="0 0 0 0 0 0 0 0 0 0 0 0 0 0 0 0 0 0 127 0"/><feMorphology radius="6" operator="dilate" in="SourceAlpha" result="effect1_dropShadow"/><feOffset dy="7" dx="0"/><feGaussianBlur stdDeviation="3"/><feColorMatrix type="matrix" values="0 0 0 0 0 0 0 0 0 0 0 0 0 0 0 0 0 0 0.3014095425605774 0"/><feBlend mode="normal" in2="BackgroundImageFix" result="effect1_dropShadow"/><feBlend mode="normal" in="SourceGraphic" in2="effect1_dropShadow" result="shape"/></filter><linearGradient x1="0.5" y1="0" x2="0.5" y2="1" id="master_svg1_0_4698"><stop offset="0%" stop-color="#2D2D2D" stop-opacity="1"/><stop offset="100%" stop-color="#020404" stop-opacity="1"/></linearGradient><filter id="master_svg2_1_9702" filterUnits="objectBoundingBox" color-interpolation-filters="sRGB" x="-18" y="-11" width="716" height="168.37353515625"><feFlood flood-opacity="0" result="BackgroundImageFix"/><feColorMatrix in="SourceAlpha" type="matrix" values="0 0 0 0 0 0 0 0 0 0 0 0 0 0 0 0 0 0 127 0"/><feMorphology radius="6" operator="dilate" in="SourceAlpha" result="effect1_dropShadow"/><feOffset dy="7" dx="0"/><feGaussianBlur stdDeviation="3"/><feColorMatrix type="matrix" values="0 0 0 0 0 0 0 0 0 0 0 0 0 0 0 0 0 0 0.3014095425605774 0"/><feBlend mode="normal" in2="BackgroundImageFix" result="effect1_dropShadow"/><feBlend mode="normal" in="SourceGraphic" in2="effect1_dropShadow" result="shape"/></filter><mask id="master_svg3_1_9702"><g filter="url(#master_svg2_1_9702)"><rect x="15" y="8.000033140182495" width="680" height="132.37353515625" rx="20" fill="#FFFFFF" fill-opacity="1"/></g></mask><linearGradient x1="0.5" y1="0" x2="0.5" y2="1" id="master_svg4_0_4698"><stop offset="0%" stop-color="#2D2D2D" stop-opacity="1"/><stop offset="100%" stop-color="#020404" stop-opacity="1"/></linearGradient><mask id="master_svg5_1_9704"><g><rect x="5" y="5.821044921875" width="690" height="134.5525360107422" rx="20" fill="#FFFFFF" fill-opacity="1"/></g></mask><linearGradient x1="0.03262001648545265" y1="0" x2="0.935869574546814" y2="0.9096944332122803" id="master_svg6_0_4262"><stop offset="0%" stop-color="#848484" stop-opacity="0.3760926425457001"/><stop offset="100%" stop-color="#000000" stop-opacity="0.5152698755264282"/></linearGradient><linearGradient x1="0" y1="0" x2="0.983288049697876" y2="0.98681640625" id="master_svg7_0_4264"><stop offset="0%" stop-color="#A0A0A0" stop-opacity="1"/><stop offset="52.162373065948486%" stop-color="#2D2D2D" stop-opacity="1"/><stop offset="100%" stop-color="#555555" stop-opacity="1"/></linearGradient><mask id="master_svg8_1_9705"><g><rect x="5" y="5.821044921875" width="690" height="134.5525360107422" rx="20" fill="#FFFFFF" fill-opacity="1"/></g></mask></defs><g><g><g><g mask="url(#master_svg3_1_9702)"><g filter="url(#master_svg0_1_9702)"><rect x="15" y="8.000033140182495" width="680" height="132.37353515625" rx="20" fill="url(#master_svg1_0_4698)" fill-opacity="1"/></g></g><g mask="url(#master_svg5_1_9704)"><g><rect x="5" y="5.821044921875" width="690" height="134.5525360107422" rx="20" fill="url(#master_svg4_0_4698)" fill-opacity="1"/></g></g><g mask="url(#master_svg8_1_9705)"><g><rect x="5" y="5.821044921875" width="690" height="134.5525360107422" rx="20" fill="url(#master_svg6_0_4262)" fill-opacity="1"/><rect x="5.5" y="6.321044921875" width="689" height="133.5525360107422" rx="19.5" stroke="url(#master_svg7_0_4264)" fill-opacity="0" fill="none" stroke-width="1"/></g></g></g></g><g><g><path d="M638,75.316604921875C638,72.281484921875,635.4219,69.821044921875,632.2417,69.821044921875L618.75833,69.821044921875C615.57808,69.821044921875,613,72.281484921875,613,75.316604921875L613,75.325484921875C613,78.360604921875,615.57808,80.821044921875,618.75833,80.821044921875L632.2417,80.821044921875C635.4219,80.821044921875,638,78.360604921875,638,75.325484921875L638,75.316604921875Z" fill="#FFFFFF" fill-opacity="1"/></g><g><path d="M641.5909,59.435704921875L642.7037,60.350824921875L649.6057,65.982534921875L652.0151,67.923944921875L652.0151,67.931844921875L654.1784,69.757544921875L655.55,70.909344921875C656.7792,71.92314492187501,657.5347,73.172344921875,657.8451,74.480944921875C658.1442,75.742644921875,658.0081,77.059044921875,657.4544,78.274044921875C657.0441,79.174344921875,656.3989,80.019144921875,655.5208,80.743444921875L654.3549,81.702944921875C654.2837,81.766544921875,654.2112,81.828744921875,654.1375,81.889444921875L651.9082,83.72234492187499L649.5522,85.659644921875L642.9878,91.069244921875C642.895,91.145544921875,642.8003,91.219544921875,642.7037,91.29134492187501L641.5909,92.206444921875C639.58549,93.85294492187501,637.16863,94.209544921875,635.09876,93.415944921875C633.76401,92.904244921875,632.57321,91.91544492187501,631.731401,90.481344921875L631.611007,90.276044921875C631.286261,89.567744921875,631.0843476,88.774244921875,631.0252322,87.916944921875L631,87.94114492187501C631,87.94114492187501,633.32103,79.522744921875,633.32103,75.82644492187501C633.32103,72.130044921875,631.00532372,64.233594921875,631.00532372,64.233594921875C631.00726465,63.179664921875,631.222875,62.212594921875,631.611063,61.365984921875L631.731456,61.160684921875C632.53112,59.798484921875,633.646,58.838934921875,634.89968,58.307505921875C634.96556,58.279265921875,635.03193,58.252142921875,635.09876,58.226149921875C637.16863,57.432519921875,639.58549,57.789201421875,641.5909,59.435704921875L641.5909,59.435704921875Z" fill="#FFFFFF" fill-opacity="1"/></g></g></g></svg>
