<svg xmlns="http://www.w3.org/2000/svg" fill="none" width="115" height="115"><circle cx="57.5" cy="57.5" fill="#1A1C1C" r="57.5"/><circle cx="57.5" cy="57.5" stroke="#787878" r="57"/><path d="M57.5 97q.97 0 1.938-.048.969-.047 1.934-.142.965-.095 1.924-.237.959-.143 1.91-.332.951-.19 1.892-.425.94-.235 1.868-.517.928-.281 1.841-.608.913-.327 1.809-.698.896-.37 1.772-.785.877-.415 1.732-.872t1.687-.956q.832-.498 1.638-1.037.806-.539 1.585-1.116.779-.578 1.528-1.193.75-.615 1.469-1.266.718-.652 1.404-1.337.685-.686 1.337-1.404.65-.719 1.266-1.469.615-.749 1.193-1.528.577-.779 1.116-1.585.539-.806 1.037-1.638.499-.832.956-1.687.457-.855.872-1.732.414-.876.785-1.772.371-.896.698-1.809.327-.913.608-1.84.282-.929.517-1.87.236-.94.425-1.89.19-.952.332-1.911.142-.96.237-1.924.095-.965.142-1.934Q97 58.47 97 57.5t-.048-1.938q-.047-.969-.142-1.934-.095-.965-.237-1.924-.143-.959-.332-1.91-.19-.951-.425-1.892-.235-.94-.517-1.868-.281-.928-.608-1.841-.327-.913-.698-1.809-.37-.896-.785-1.772-.415-.877-.872-1.732t-.956-1.687q-.498-.832-1.037-1.638-.539-.806-1.116-1.585-.578-.779-1.193-1.529-.615-.75-1.266-1.468-.652-.718-1.337-1.404-.686-.685-1.404-1.337-.719-.65-1.469-1.266-.749-.615-1.528-1.193-.779-.577-1.585-1.116-.806-.539-1.638-1.037-.832-.499-1.687-.956-.855-.457-1.732-.872-.876-.414-1.772-.785-.896-.371-1.809-.698-.913-.327-1.84-.608-.929-.282-1.87-.517-.94-.236-1.89-.425-.952-.19-1.911-.331-.96-.143-1.924-.238-.965-.095-1.934-.142Q58.47 18 57.5 18t-1.938.048q-.969.047-1.934.142-.965.095-1.924.238-.959.142-1.91.331-.951.19-1.892.425-.94.235-1.868.517-.928.281-1.841.608-.913.327-1.809.698-.896.37-1.772.785-.877.415-1.732.872t-1.687.956q-.832.498-1.638 1.037-.806.539-1.585 1.116-.779.578-1.529 1.193-.75.615-1.468 1.266-.718.652-1.404 1.337-.685.686-1.337 1.404-.65.719-1.266 1.468-.615.75-1.193 1.529-.577.779-1.116 1.585-.539.806-1.037 1.638-.499.832-.956 1.687-.457.855-.872 1.732-.414.876-.785 1.772-.371.896-.698 1.809-.327.913-.608 1.84-.282.929-.517 1.87-.236.94-.425 1.89-.19.952-.331 1.911-.143.96-.238 1.924-.095.965-.142 1.934Q18 56.53 18 57.5t.048 1.938q.047.969.142 1.934.095.965.238 1.924.142.959.331 1.91.19.951.425 1.892.235.94.517 1.868.281.928.608 1.841.327.913.698 1.809.37.896.785 1.772.415.877.872 1.732t.956 1.687q.498.832 1.037 1.638.539.806 1.116 1.585.578.779 1.193 1.528.615.75 1.266 1.469.652.718 1.337 1.404.686.685 1.404 1.337.719.65 1.468 1.266.75.615 1.529 1.193.779.577 1.585 1.116.806.539 1.638 1.037.832.499 1.687.956.855.457 1.732.872.876.414 1.772.785.896.371 1.809.698.913.327 1.84.608.929.282 1.87.517.94.236 1.89.425.952.19 1.911.332.96.142 1.924.237.965.095 1.934.142Q56.53 97 57.5 97zm-3.916-23.544c-1.455.804-3.247 1.206-5.376 1.206H38.43V40.61h7.559v30.257h3.797c1.053 0 1.949-.373 2.688-1.118.74-.744 1.11-1.625 1.11-2.642V40.61h7.558v30.257h3.797c1.03 0 1.914-.373 2.653-1.118.74-.744 1.11-1.625 1.11-2.642V40.61h7.594v21.123c0 3.524-1.27 6.56-3.806 9.107q-3.807 3.822-9.13 3.822h-9.777v-1.206z" fill-rule="evenodd" fill="#FFF"/></svg>