<svg xmlns="http://www.w3.org/2000/svg" fill="none" width="26" height="26"><defs><clipPath id="a"><rect width="26" height="26" rx="0"/></clipPath></defs><g clip-path="url(#a)"><path d="M4.333 6.438h17.333q.074 0 .147-.015.072-.014.14-.043.069-.028.13-.069.061-.04.114-.093.052-.052.093-.114.041-.061.07-.13.028-.068.042-.14.014-.073.014-.146 0-.074-.014-.147-.014-.072-.043-.14-.028-.069-.07-.13-.04-.062-.092-.114-.053-.052-.114-.093-.061-.041-.13-.07-.068-.028-.14-.042-.073-.014-.147-.014H4.333q-.074 0-.146.014-.073.014-.141.043-.068.028-.13.069-.061.04-.113.093-.053.052-.094.114-.04.061-.069.13-.028.068-.043.14-.014.073-.014.146 0 .074.014.147.015.072.043.14.028.069.07.13.04.062.093.114.052.052.113.093.062.041.13.07.068.028.14.042.073.014.147.014ZM13 11.313h8.667q.074 0 .146-.015.072-.014.14-.043.069-.028.13-.069.062-.04.114-.093.052-.052.093-.114.041-.061.07-.13.028-.068.042-.14.015-.073.015-.146 0-.074-.015-.147-.014-.072-.042-.14-.029-.069-.07-.13-.04-.062-.093-.114-.052-.052-.114-.093-.061-.041-.13-.07-.068-.028-.14-.042-.072-.014-.146-.014H13q-.074 0-.146.014-.073.014-.141.043-.068.028-.13.069-.061.04-.113.093-.053.052-.094.114-.04.061-.069.13-.028.068-.043.14-.014.073-.014.146 0 .074.014.147.015.072.043.14.028.069.07.13.04.062.093.114.052.052.113.093.062.041.13.07.068.028.14.042.073.014.147.014ZM13 16.188h8.667q.074 0 .146-.015.072-.014.14-.043.069-.028.13-.069.062-.04.114-.093.052-.052.093-.114.041-.061.07-.13.028-.068.042-.14.015-.073.015-.146 0-.074-.015-.147-.014-.072-.042-.14-.029-.069-.07-.13-.04-.062-.093-.114-.052-.052-.114-.093-.061-.041-.13-.07-.068-.028-.14-.042-.072-.014-.146-.014H13q-.074 0-.146.014-.073.014-.141.043-.068.028-.13.069-.061.04-.113.093-.053.052-.094.114-.04.061-.069.13-.028.068-.043.14-.014.073-.014.146 0 .074.014.147.015.072.043.14.028.069.07.13.04.062.093.114.052.052.113.093.062.041.13.07.068.028.14.042.073.015.147.015ZM4.333 21.063h17.333q.074 0 .147-.015.072-.014.14-.043.069-.028.13-.069.061-.04.114-.093.052-.052.093-.114.041-.061.07-.13.028-.068.042-.14.014-.073.014-.146 0-.074-.014-.147-.014-.072-.043-.14-.028-.069-.07-.13-.04-.062-.092-.114-.053-.052-.114-.093-.061-.041-.13-.07-.068-.028-.14-.042-.073-.015-.147-.015H4.333q-.074 0-.146.015-.073.014-.141.043-.068.028-.13.069-.061.04-.113.093-.053.052-.094.114-.04.061-.069.13-.028.068-.043.14-.014.073-.014.146 0 .074.014.147.015.072.043.14.028.069.07.13.04.062.093.114.052.052.113.093.062.041.13.07.068.028.14.042.073.015.147.015Z" fill-rule="evenodd" fill="#EDEDED"/><g fill="#EDEDED"><path d="M8.666 10.292 4.333 13l4.333 2.709v-5.417Z"/><path d="M9.514 16.239q.152-.244.152-.53v-5.417q0-.098-.019-.195-.02-.097-.057-.188-.037-.09-.092-.173-.055-.081-.125-.151-.07-.07-.151-.124-.082-.055-.173-.093-.091-.038-.188-.057-.096-.019-.195-.019-.286 0-.53.152l-4.333 2.708q-.084.053-.155.12-.072.068-.13.148-.056.08-.097.17-.04.09-.062.185-.023.096-.026.195-.003.098.014.195.016.098.05.19.036.092.088.175.122.196.318.318l4.333 2.709q.169.105.365.138.196.033.39-.012t.356-.16q.162-.116.267-.284Zm-1.848-2.335v-1.808L6.22 13l1.446.904Z" fill-rule="evenodd"/></g></g></svg>