<svg xmlns="http://www.w3.org/2000/svg" fill="none" width="21.792" height="21.039"><path d="M21.792 18.855q0 .456-.156.852-.156.396-.444.696-.288.3-.672.468-.384.168-.84.168H2.256q-.456 0-.864-.168t-.72-.468q-.312-.3-.492-.696Q0 19.31 0 18.855V6.879q0-.912.636-1.548t1.548-.636h17.424q.912 0 1.548.636t.636 1.548v3.264h-5.448q-.912 0-1.548.624t-.636 1.536q.024.624.264 1.104.192.408.636.744t1.284.336h5.448v4.368ZM18.528 3.59H7.632q1.296-.672 2.448-1.296 1.008-.528 1.992-1.056t1.536-.816q.84-.456 1.5-.42.66.036 1.116.228.528.264.912.696l1.392 2.664Zm-3.264 8.712q0-.456.312-.768t.768-.312q.456 0 .768.312t.312.768q0 .456-.312.78t-.768.324q-.456 0-.768-.324t-.312-.78Z" fill="#B0B0B0"/></svg>