<svg xmlns="http://www.w3.org/2000/svg" fill="none" width="20" height="20"><circle cx="10" cy="10" stroke-opacity=".2" stroke="#FFF" stroke-width=".5" r="9.75"/><path d="M9.953 5 6.87 6.585l1.215.617 1.87-1.057 1.868 1.057 1.122-.617L9.954 5Zm4.019 2.025L15 7.554v1.233l-1.028.528V8.258l-1.121-.704 1.121-.529Zm-4.02.002 1.028.616-1.028.617-1.12-.617 1.12-.616ZM5 7.643l1.028-.529 1.122.529-1.122.704v1.057L5 8.876V7.643Zm2.99.528-1.027.528v1.233l1.869.97v2.201l1.028.617 1.122-.617v-2.202l1.962-.969V8.7l-1.028-.528-2.056.969-1.87-.97ZM5 9.844v3.258l2.897 1.674V13.63l-1.776-1.145v-2.114L5 9.844Zm10 0v3.26l-2.897 1.673v-1.145l1.776-1.145v-2.114L15 9.845Zm-7.113 1.601-1.072-.544-.07 1.147 1.119.62.023-1.223Zm3.952 0 1.073-.544.069 1.147-1.118.62-.024-1.223ZM8.8 14.03l1.152.57.005.03v-.03l1.089-.528v1.145l-1.092.617v-.017l-.002.015-1.152-.615V14.03Z" fill-rule="evenodd" fill="#9E9E9E"/></svg>