<svg xmlns="http://www.w3.org/2000/svg" xmlns:xlink="http://www.w3.org/1999/xlink" fill="none" version="1.1" width="18" height="16" viewBox="0 0 18 16"><g><path d="M14.0259,11.2L17.7662,11.2C17.8452,11.2,17.9225,11.1938,18,11.1884L18,11.2762C18,13.8743,15.826,16,13.1688,16L4.83116,16C2.17399,16,0,13.8743,0,11.2762L0,4.7238C0,2.12568,2.17399,0,4.83116,0L13.1688,0C15.826,0,18,2.12568,18,4.7238L18,4.81159C17.9225,4.80608,17.845,4.79993,17.7662,4.79993L14.0259,4.79993C12.2259,4.79993,10.7532,6.23995,10.7532,7.99995C10.7532,9.75995,12.2259,11.2,14.0259,11.2ZM4.32399,5.02862L9.23311,5.02862C9.68496,5.02862,10.0512,4.67046,10.0512,4.22866C10.0512,3.78686,9.68496,3.42871,9.23311,3.42871L4.32399,3.42871C3.87215,3.42871,3.50586,3.78686,3.50586,4.22866C3.50586,4.67046,3.87215,5.02862,4.32399,5.02862Z" fill-rule="evenodd" fill="#FFFFFF" fill-opacity="1"/></g></svg>