<svg xmlns="http://www.w3.org/2000/svg" fill="none" width="18" height="18"><path d="M14.659 5.66c0-1.55-1.499-2.812-3.341-2.812H3.34C1.5 2.848 0 4.109 0 5.66v9.527C0 16.738 1.499 18 3.341 18h7.977c1.842 0 3.34-1.262 3.34-2.813V5.66zm-1.67 0v9.527c0 .776-.75 1.407-1.671 1.407H3.34c-.921 0-1.67-.631-1.67-1.407V5.66c0-.775.749-1.406 1.67-1.406h7.977c.92 0 1.67.63 1.67 1.406zm3.34 7.77V2.813c0-.776-.749-1.407-1.67-1.407H5.387c-.46 0-.835-.315-.835-.703 0-.388.374-.703.835-.703h9.272C16.5 0 18 1.262 18 2.813V13.43c0 .388-.374.703-.835.703-.462 0-.835-.315-.835-.703z" fill="#5ED5A8"/></svg>