<svg xmlns="http://www.w3.org/2000/svg" xmlns:xlink="http://www.w3.org/1999/xlink" fill="none" version="1.1" width="15" height="15" viewBox="0 0 15 15"><defs><clipPath id="master_svg0_20_04775"><rect x="0" y="0" width="15" height="15" rx="0"/></clipPath></defs><g clip-path="url(#master_svg0_20_04775)"><g><path d="M12.55859,10.4375L11.09884,10.4375Q11.0496,10.4375,11.0013,10.44711Q10.953,10.45672,10.907499999999999,10.47556Q10.862,10.49441,10.82106,10.52176Q10.78011,10.54912,10.74529,10.58395Q10.71047,10.61877,10.68311,10.65971Q10.655750000000001,10.70066,10.6369,10.74616Q10.61806,10.79165,10.608450000000001,10.83995Q10.59884,10.88825,10.59884,10.9375Q10.59884,10.98675,10.608450000000001,11.03504Q10.61806,11.08334,10.6369,11.12884Q10.655750000000001,11.17434,10.68311,11.21528Q10.71047,11.25623,10.74529,11.29105Q10.78011,11.32587,10.82106,11.35323Q10.862,11.38059,10.907499999999999,11.39944Q10.953,11.41828,11.0013,11.42789Q11.0496,11.4375,11.09884,11.4375L12.55859,11.4375Q13.12976,11.4375,13.53363,11.03363Q13.9375,10.62976,13.9375,10.05859L13.9375,2.4414059999999997Q13.9375,1.870244,13.53363,1.4663723Q13.12975,1.0625,12.55859,1.0625L4.941406,1.0625Q4.370245,1.0625,3.9663724,1.4663724Q3.5625,1.870245,3.5625,2.4414059999999997L3.5625,3.88487Q3.5625,3.93412,3.572107,3.98242Q3.581715,4.0307200000000005,3.6005599999999998,4.07622Q3.619406,4.12171,3.646765,4.16266Q3.674125,4.203609999999999,3.708947,4.23843Q3.743769,4.27325,3.784715,4.30061Q3.825661,4.3279700000000005,3.871158,4.34681Q3.916655,4.36566,3.9649549,4.37527Q4.0132543,4.384869999999999,4.0625,4.384869999999999Q4.1117457,4.384869999999999,4.1600451,4.37527Q4.208345,4.36566,4.253842,4.34681Q4.299339,4.3279700000000005,4.340285,4.30061Q4.381231,4.27325,4.416053,4.23843Q4.450875,4.203609999999999,4.478235,4.16266Q4.505594,4.12171,4.52444,4.07622Q4.543285,4.0307200000000005,4.552893,3.98242Q4.5625,3.93412,4.5625,3.88487L4.5625,2.4414059999999997Q4.5625,2.284458,4.673479,2.173479Q4.784458,2.0625,4.941406,2.0625L12.55859,2.0625Q12.71554,2.0625,12.82652,2.173479Q12.9375,2.284459,12.9375,2.4414059999999997L12.9375,10.05859Q12.9375,10.4375,12.55859,10.4375Z" fill-rule="evenodd" fill="#BEBEBE" fill-opacity="1"/></g><g><path d="M11.4375,12.55859L11.4375,4.941406Q11.4375,4.370244,11.03363,3.9663723Q10.62975,3.5625,10.05859,3.5625L2.4414059999999997,3.5625Q1.870245,3.5625,1.4663724,3.9663724Q1.0625,4.370245,1.0625,4.941406L1.0625,12.55859Q1.0625,13.12975,1.4663723,13.53363Q1.870244,13.9375,2.4414059999999997,13.9375L10.05859,13.9375Q10.62976,13.9375,11.03363,13.53363Q11.4375,13.12976,11.4375,12.55859ZM10.32652,4.673479Q10.4375,4.784459,10.4375,4.941406L10.4375,12.55859Q10.4375,12.9375,10.05859,12.9375L2.4414059999999997,12.9375Q2.0625,12.9375,2.0625,12.55859L2.0625,4.941406Q2.0625,4.784458,2.173479,4.673479Q2.284458,4.5625,2.4414059999999997,4.5625L10.05859,4.5625Q10.21554,4.5625,10.32652,4.673479Z" fill-rule="evenodd" fill="#BEBEBE" fill-opacity="1"/></g></g></svg>