<svg xmlns="http://www.w3.org/2000/svg" fill="none" width="141.631" height="149.586"><defs><filter id="b" filterUnits="objectBoundingBox" color-interpolation-filters="sRGB" x="-50" y="-37" width="166.631" height="174.586"><feFlood flood-opacity="0" result="BackgroundImageFix"/><feColorMatrix in="SourceAlpha" values="0 0 0 0 0 0 0 0 0 0 0 0 0 0 0 0 0 0 127 0"/><feOffset dy="13"/><feGaussianBlur stdDeviation="12.5"/><feColorMatrix values="0 0 0 0 0.2267354279756546 0 0 0 0 0.43705418705940247 0 0 0 0 0.6878188848495483 0 0 0 0.07699275016784668 0"/><feBlend in2="BackgroundImageFix" result="effect1_dropShadow"/><feBlend in="SourceGraphic" in2="effect1_dropShadow" result="shape"/></filter><filter id="a" filterUnits="objectBoundingBox" color-interpolation-filters="sRGB" x="-50" y="-37" width="166.631" height="174.586"><feFlood flood-opacity="0" result="BackgroundImageFix"/><feColorMatrix in="SourceAlpha" values="0 0 0 0 0 0 0 0 0 0 0 0 0 0 0 0 0 0 127 0"/><feOffset dy="13"/><feGaussianBlur stdDeviation="12.5"/><feColorMatrix values="0 0 0 0 0.2267354279756546 0 0 0 0 0.43705418705940247 0 0 0 0 0.6878188848495483 0 0 0 0.07699275016784668 0"/><feBlend in2="BackgroundImageFix" result="effect1_dropShadow"/><feBlend in="SourceGraphic" in2="effect1_dropShadow" result="shape"/></filter><filter id="d" filterUnits="objectBoundingBox" color-interpolation-filters="sRGB" x="-34" y="-37" width="134.631" height="113.771"><feFlood flood-opacity="0" result="BackgroundImageFix"/><feColorMatrix in="SourceAlpha" values="0 0 0 0 0 0 0 0 0 0 0 0 0 0 0 0 0 0 127 0"/><feOffset dy="-3"/><feGaussianBlur stdDeviation="8.5"/><feColorMatrix values="0 0 0 0 0.011904762126505375 0 0 0 0 0.011378002353012562 0 0 0 0 0.011378002353012562 0 0 0 0.23000000417232513 0"/><feBlend in2="BackgroundImageFix" result="effect1_dropShadow"/><feBlend in="SourceGraphic" in2="effect1_dropShadow" result="shape"/></filter><filter id="e" filterUnits="objectBoundingBox" color-interpolation-filters="sRGB" x="-14" y="-17" width="94.631" height="50.971"><feFlood flood-opacity="0" result="BackgroundImageFix"/><feColorMatrix in="SourceAlpha" values="0 0 0 0 0 0 0 0 0 0 0 0 0 0 0 0 0 0 127 0"/><feOffset dy="-3"/><feGaussianBlur stdDeviation="3.5"/><feColorMatrix values="0 0 0 0 0.0416666679084301 0 0 0 0 0.0416666679084301 0 0 0 0 0.0416666679084301 0 0 0 0.2800000011920929 0"/><feBlend in2="BackgroundImageFix" result="effect1_dropShadow"/><feBlend in="SourceGraphic" in2="effect1_dropShadow" result="shape"/></filter><mask id="c"><g filter="url(#a)"><path d="M37.5 57.644a9.864 9.864 0 0 1 3.176-7.254L66.81 26.312a6.836 6.836 0 0 1 9.382.104l24.92 23.994a9.864 9.864 0 0 1 3.018 7.106v34.188c0 4.077-3.29 7.382-7.35 7.382H44.85c-4.059 0-7.349-3.305-7.349-7.382v-34.06z" fill-rule="evenodd" fill="#FFF"/></g></mask></defs><g opacity=".6"><g filter="url(#b)"><path d="M37.5 57.644a9.864 9.864 0 0 1 3.176-7.254L66.81 26.312a6.836 6.836 0 0 1 9.382.104l24.92 23.994a9.864 9.864 0 0 1 3.018 7.106v34.188c0 4.077-3.29 7.382-7.35 7.382H44.85c-4.059 0-7.349-3.305-7.349-7.382v-34.06z" fill-rule="evenodd" fill="#343434"/></g><g mask="url(#c)"><g filter="url(#d)"><path d="m37.5 53.316 30.451 22.042a4.881 4.881 0 0 0 5.729 0l30.45-22.042v40.849c0 2.718-2.193 4.921-4.898 4.921H42.398c-2.706 0-4.899-2.203-4.899-4.921v-40.85z" fill-rule="evenodd" fill="#343434"/></g><g filter="url(#e)"><path d="M67.951 77.044a4.881 4.881 0 0 1 5.729 0l30.45 22.042H37.5l30.451-22.042z" fill-rule="evenodd" fill="#343434"/></g></g><g fill="#DEDEDE"><ellipse cx="62.976" cy="51.347" rx="2.45" ry="2.461" opacity=".2"/><ellipse cx="80.123" cy="51.347" rx="2.45" ry="2.461" opacity=".2"/><path d="M64.446 59.353a.98.98 0 0 0 .738.962c1.245.309 3.882.875 6.44.875 2.546 0 5.092-.56 6.303-.87a.978.978 0 0 0 .727-.958c0-.687-.663-1.189-1.329-1.034-1.34.313-3.524.723-5.737.723-2.23 0-4.459-.417-5.82-.73-.663-.153-1.322.348-1.322 1.032z" fill-rule="evenodd" opacity=".2"/></g></g></svg>