<svg xmlns="http://www.w3.org/2000/svg" xmlns:xlink="http://www.w3.org/1999/xlink" fill="none" version="1.1" width="22" height="22" viewBox="0 0 22 22"><defs><clipPath id="master_svg0_20_02639"><rect x="0" y="0" width="22" height="22" rx="0"/></clipPath></defs><g><g clip-path="url(#master_svg0_20_02639)"><g><path d="M-5.3544358535248915e-8,10.99998828125C-0.00006440325905853524,12.44458828125,0.28441193554094146,13.87498828125,0.8371849355409414,15.20968828125C1.3899599355409415,16.54428828125,2.2001999355409416,17.75698828125,3.2216499355409414,18.77848828125C4.243099935540942,19.79998828125,5.455759935540941,20.61028828125,6.790369935540942,21.16308828125C8.124979935540942,21.71598828125,9.555419935540941,22.00048828125,10.999999935540941,22.00048828125C12.444599935540941,22.00048828125,13.874999935540941,21.71598828125,15.209599935540941,21.16308828125C16.54419993554094,20.61028828125,17.756899935540943,19.79998828125,18.778299935540943,18.77848828125C19.799799935540943,17.75698828125,20.60999993554094,16.54428828125,21.162799935540942,15.20968828125C21.71559993554094,13.87498828125,22.00009993554094,12.44458828125,21.99999993554094,10.99998828125C21.99989993554094,8.08269828125,20.840899935540943,5.28493828125,18.77799993554094,3.22213828125C16.71509993554094,1.15934828125,13.91729993554094,0.00048828124999806134,10.999999935540941,0.00048828125C8.082699935540942,0.0004882812500000775,5.284879935540942,1.15934828125,3.2219999355409414,3.22213828125C1.1591099355409415,5.28493828125,0.00012989954094146474,8.08269828125,-5.3544358535248915e-8,10.99998828125C-5.3544358535248915e-8,10.99998828125,-5.3544358535248915e-8,10.99998828125,-5.3544358535248915e-8,10.99998828125Z" fill="#627EEA" fill-opacity="1"/></g><g><path d="M11.1650390625,2.70751953125C11.1650390625,2.70751953125,11.1650390625,8.71037953125,11.1650390625,8.71037953125C11.1650390625,8.71037953125,16.2376090625,10.97637953125,16.2376090625,10.97637953125C16.2376090625,10.97637953125,11.1650390625,2.70751953125,11.1650390625,2.70751953125Z" fill="#FFFFFF" fill-opacity="0.6019999980926514"/></g><g><path d="M11.16556375,2.70751953125C11.16556375,2.70751953125,6.08984375,10.97637953125,6.08984375,10.97637953125C6.08984375,10.97637953125,11.16556375,8.708809531250001,11.16556375,8.708809531250001C11.16556375,8.708809531250001,11.16556375,2.70751953125,11.16556375,2.70751953125Z" fill="#FFFFFF" fill-opacity="1"/></g><g><path d="M11.1650390625,14.8657584375C11.1650390625,14.8657584375,11.1650390625,18.9451884375,11.1650390625,18.9451884375C11.1650390625,18.9451884375,16.2407590625,11.9208984375,16.2407590625,11.9208984375C16.2407590625,11.9208984375,11.1650390625,14.8657584375,11.1650390625,14.8657584375Z" fill="#FFFFFF" fill-opacity="0.6019999980926514"/></g><g><path d="M11.16556375,18.9451884375C11.16556375,18.9451884375,11.16556375,14.8657584375,11.16556375,14.8657584375C11.16556375,14.8657584375,6.08984375,11.9208984375,6.08984375,11.9208984375C6.08984375,11.9208984375,11.16556375,18.9451884375,11.16556375,18.9451884375Z" fill="#FFFFFF" fill-opacity="1"/></g><g><path d="M11.1650390625,13.922879218750001C11.1650390625,13.922879218750001,16.2376090625,10.97644921875,16.2376090625,10.97644921875C16.2376090625,10.97644921875,11.1650390625,8.71044921875,11.1650390625,8.71044921875C11.1650390625,8.71044921875,11.1650390625,13.922879218750001,11.1650390625,13.922879218750001Z" fill="#FFFFFF" fill-opacity="0.20000000298023224"/></g><g><path d="M6.0908203125,10.97644921875C6.0908203125,10.97644921875,11.1649603125,13.922879218750001,11.1649603125,13.922879218750001C11.1649603125,13.922879218750001,11.1649603125,8.71044921875,11.1649603125,8.71044921875C11.1649603125,8.71044921875,6.0908203125,10.97644921875,6.0908203125,10.97644921875Z" fill="#FFFFFF" fill-opacity="0.6019999980926514"/></g></g></g></svg>