<svg xmlns="http://www.w3.org/2000/svg" fill="none" width="30" height="30"><path d="M10 20.667a4.667 4.667 0 119.333 0 4.667 4.667 0 01-9.333 0zm6.914 0a2.25 2.25 0 00-2.247-2.247 2.25 2.25 0 00-2.247 2.247 2.25 2.25 0 002.247 2.247 2.25 2.25 0 002.247-2.247z" fill-rule="evenodd" fill="#868686"/><path d="M14.103.342a1.345 1.345 0 011.794 0l13.646 12.173c.93.83.346 2.374-.897 2.374H26.15v12.394A2.71 2.71 0 0123.447 30H6.553a2.71 2.71 0 01-2.704-2.717V14.89H1.354c-1.243 0-1.827-1.545-.897-2.374L14.103.342zm11.874 12.17L15 2.721 4.023 12.512h2.192v14.772c0 .187.151.34.338.34h16.895a.339.339 0 00.337-.34V12.512h2.192z" fill-rule="evenodd" fill="#868686"/></svg>
