<svg xmlns="http://www.w3.org/2000/svg" xmlns:xlink="http://www.w3.org/1999/xlink" fill="none" version="1.1" width="18" height="16" viewBox="0 0 18 16"><g><g><path d="M14.0259,11.2L17.7662,11.2C17.8452,11.2,17.9225,11.1938,18,11.1884L18,11.2762C18,13.8743,15.826,16,13.1688,16L4.83116,16C2.17399,16,0,13.8743,0,11.2762L0,4.7238C0,2.12568,2.17399,0,4.83116,0L13.1688,0C15.826,0,18,2.12568,18,4.7238L18,4.81159C17.9225,4.80608,17.845,4.79993,17.7662,4.79993L14.0259,4.79993C12.2259,4.79993,10.7532,6.23995,10.7532,7.99995C10.7532,9.75995,12.2259,11.2,14.0259,11.2ZM4.32399,5.02862L9.23311,5.02862C9.68496,5.02862,10.0512,4.67046,10.0512,4.22866C10.0512,3.78686,9.68496,3.42871,9.23311,3.42871L4.32399,3.42871C3.87215,3.42871,3.50586,3.78686,3.50586,4.22866C3.50586,4.67046,3.87215,5.02862,4.32399,5.02862Z" fill-rule="evenodd" fill="#FFFFFF" fill-opacity="1"/></g><g><path d="M14.6617503125,6.39990234375L17.549950312500002,6.39990234375C17.798460312499998,6.39990234375,17.9999103125,6.60508234375,17.9999103125,6.85818534375L17.9999103125,9.141522343750001C17.9999303125,9.26308234375,17.9525403125,9.37967234375,17.8681503125,9.46564234375C17.7837703125,9.55160234375,17.669310312500002,9.59990234375,17.549950312500002,9.59990234375L14.6617503125,9.59990234375C13.7977273125,9.59990234375,13.0908203125,8.87991234375,13.0908203125,7.99990234375C13.0908203125,7.1198883437500005,13.7977273125,6.39990234375,14.6617503125,6.39990234375ZM14.1806603125,8.00013234375C14.1806603125,8.29468234375,14.4248703125,8.53346234375,14.7261203125,8.53346234375C15.0273603125,8.53346234375,15.2715703125,8.29468234375,15.2715703125,8.00013234375C15.2715703125,7.70558234375,15.0273603125,7.46679234375,14.7261203125,7.46679234375C14.4248703125,7.46679234375,14.1806603125,7.70558234375,14.1806603125,8.00013234375Z" fill-rule="evenodd" fill="#FFFFFF" fill-opacity="1"/></g></g></svg>