<svg xmlns="http://www.w3.org/2000/svg" fill="none" width="18" height="18"><defs><clipPath id="a"><rect width="18" height="18" rx="0"/></clipPath></defs><g clip-path="url(#a)"><path d="M2.5 14.5v-11q0-1.036.732-1.768T5 1h8q1.036 0 1.768.732T15.5 3.5v11q0 1.036-.732 1.768T13 17H5q-1.036 0-1.768-.732T2.5 14.5Zm1 0q0 .621.44 1.06Q4.378 16 5 16h8q.621 0 1.06-.44.44-.439.44-1.06v-11q0-.621-.44-1.06Q13.622 2 13 2H5q-.621 0-1.06.44-.44.439-.44 1.06v11Z" fill="#A0A0A0"/><path d="M7.875 5.75h4.5q.05 0 .098-.01t.093-.028q.046-.019.087-.046.04-.028.076-.062.034-.035.062-.076.027-.041.046-.087.019-.045.028-.093.01-.049.01-.098 0-.05-.01-.098t-.028-.093q-.019-.046-.046-.087-.028-.04-.062-.076-.035-.034-.076-.062-.041-.027-.087-.046-.045-.019-.093-.028-.049-.01-.098-.01h-4.5q-.05 0-.098.01t-.093.028q-.046.019-.087.046-.04.028-.076.062-.034.035-.062.076-.027.041-.046.087-.019.045-.028.093-.01.049-.01.098 0 .05.01.098t.028.093q.019.046.046.087.028.04.062.076.035.034.076.062.041.027.087.046.045.019.093.028.049.01.098.01ZM7.875 9.5h4.5q.05 0 .098-.01t.093-.028q.046-.019.087-.046.04-.028.076-.062.034-.035.062-.076.027-.041.046-.087.019-.045.028-.093.01-.049.01-.098 0-.05-.01-.098t-.028-.093q-.019-.046-.046-.087-.028-.04-.062-.076-.035-.034-.076-.062-.041-.027-.087-.046-.045-.019-.093-.028-.049-.01-.098-.01h-4.5q-.05 0-.098.01t-.093.028q-.046.019-.087.046-.04.028-.076.062-.034.035-.062.076-.027.041-.046.087-.019.045-.028.093-.01.049-.01.098 0 .05.01.098t.028.093q.019.046.046.087.028.04.062.076.035.034.076.062.041.027.087.046.045.019.093.028.049.01.098.01ZM7.875 13.25h4.5q.05 0 .098-.01t.093-.028q.046-.019.087-.046.04-.028.076-.062.034-.035.062-.076.027-.041.046-.087.019-.045.028-.093.01-.049.01-.098 0-.05-.01-.098t-.028-.093q-.019-.046-.046-.087-.028-.04-.062-.076-.035-.034-.076-.062-.041-.027-.087-.046-.045-.019-.093-.028-.049-.01-.098-.01h-4.5q-.05 0-.098.01t-.093.028q-.046.019-.087.046-.04.028-.076.062-.034.035-.062.076-.027.041-.046.087-.019.045-.028.093-.01.049-.01.098 0 .05.01.098t.028.093q.019.046.046.087.028.04.062.076.035.034.076.062.041.027.087.046.045.019.093.028.049.01.098.01Z" fill-rule="evenodd" fill="#A0A0A0"/><path d="M6.375 5.25q0 .074-.014.146-.015.073-.043.141-.028.068-.07.13-.04.061-.093.113-.052.053-.113.094-.062.04-.13.069-.068.028-.14.043Q5.698 6 5.624 6t-.146-.014q-.073-.015-.141-.043-.068-.028-.13-.07-.061-.04-.113-.093-.053-.052-.094-.113-.04-.062-.069-.13-.028-.068-.043-.14-.014-.073-.014-.147t.014-.146q.015-.073.043-.141.028-.068.07-.13.04-.061.093-.113.052-.053.113-.094.062-.04.13-.069.068-.028.14-.043.073-.014.147-.014t.146.014q.073.015.141.043.068.028.13.07.061.04.113.093.053.052.094.113.04.062.069.13.028.068.043.14.014.073.014.147ZM6.375 9q0 .074-.014.146-.015.073-.043.141-.028.068-.07.13-.04.061-.093.113-.052.053-.113.094-.062.04-.13.069-.068.028-.14.043-.073.014-.147.014t-.146-.014q-.073-.015-.141-.043-.068-.028-.13-.07-.061-.04-.113-.093-.053-.052-.094-.113-.04-.062-.069-.13-.028-.068-.043-.14-.014-.073-.014-.147t.014-.146q.015-.073.043-.141.028-.068.07-.13.04-.061.093-.113.052-.053.113-.094.062-.04.13-.069.068-.028.14-.043.073-.014.147-.014t.146.014q.073.015.141.043.068.028.13.07.061.04.113.093.053.052.094.113.04.062.069.13.028.068.043.14.014.073.014.147ZM6.375 12.75q0 .074-.014.146-.015.073-.043.141-.028.068-.07.13-.04.061-.093.113-.052.053-.113.094-.062.04-.13.069-.068.028-.14.043-.073.014-.147.014t-.146-.014q-.073-.015-.141-.043-.068-.028-.13-.07-.061-.04-.113-.093-.053-.052-.094-.113-.04-.062-.069-.13-.028-.068-.043-.14-.014-.073-.014-.147t.014-.146q.015-.073.043-.141.028-.068.07-.13.04-.061.093-.113.052-.053.113-.094.062-.04.13-.069.068-.028.14-.043.073-.014.147-.014t.146.014q.073.015.141.043.068.028.13.07.061.04.113.093.053.052.094.113.04.062.069.13.028.068.043.14.014.073.014.147Z" fill="#A0A0A0"/></g></svg>