<svg xmlns="http://www.w3.org/2000/svg" fill="none" width="16" height="16"><defs><clipPath id="a"><rect width="16" height="16" rx="0"/></clipPath></defs><g clip-path="url(#a)" fill-rule="evenodd" fill="#B0B0B0"><path d="M2 14.75h6q.074 0 .146-.014.073-.015.141-.043.068-.028.13-.07.061-.04.113-.093.053-.052.094-.113.04-.062.069-.13.028-.068.043-.14.014-.073.014-.147t-.014-.146q-.015-.073-.043-.141-.028-.068-.07-.13-.04-.061-.093-.113-.052-.053-.113-.094-.062-.04-.13-.069-.068-.028-.14-.043-.073-.014-.147-.014H2.75V2.75h5.247q.074 0 .147-.014.072-.015.14-.043.068-.028.13-.07.061-.04.114-.093.052-.052.093-.113.04-.062.07-.13.027-.068.042-.14.014-.073.014-.147t-.014-.146q-.015-.073-.043-.141-.028-.068-.07-.13-.04-.061-.092-.113-.053-.053-.114-.094-.062-.04-.13-.069-.068-.028-.14-.043-.073-.014-.147-.014H2q-.074 0-.146.014-.073.015-.141.043-.068.028-.13.07-.061.04-.113.093-.053.052-.094.113-.04.062-.069.13-.028.068-.043.14-.014.073-.014.147v12q0 .074.014.146.015.073.043.141.028.068.07.13.04.061.093.113.052.053.113.094.062.04.13.069.068.028.14.043.073.014.147.014zm9.53-10.28q-.105-.106-.243-.163-.138-.057-.287-.057-.15 0-.287.057-.138.057-.243.163-.106.105-.163.243-.057.138-.057.287 0 .15.057.287.057.138.163.243L12.94 8l-2.47 2.47q-.106.105-.163.243-.057.138-.057.287 0 .15.057.287.057.138.163.243.105.106.243.163.138.057.287.057.15 0 .287-.057.138-.057.243-.163l3-3q.053-.052.094-.113.04-.062.069-.13.028-.068.043-.14.014-.073.014-.147t-.014-.146q-.015-.073-.043-.141-.028-.068-.07-.13-.04-.061-.093-.113l-3-3z"/><path d="M5.333 8.748H14q.074 0 .146-.014.072-.015.14-.043.069-.028.13-.07.062-.04.114-.093.052-.052.093-.113.041-.062.07-.13.028-.068.042-.14.015-.073.015-.147t-.015-.146q-.014-.073-.042-.141-.029-.068-.07-.13-.04-.061-.093-.113-.052-.053-.114-.094-.061-.04-.13-.069-.068-.028-.14-.043-.072-.014-.146-.014H5.333q-.074 0-.146.014-.073.015-.141.043-.068.028-.13.07-.061.04-.113.093-.053.052-.094.113-.04.062-.069.13-.028.068-.043.14-.014.073-.014.147t.014.146q.015.073.043.141.028.068.07.13.04.061.093.113.052.053.113.094.062.04.13.069.068.028.14.043.073.014.147.014z"/></g></svg>