<svg xmlns="http://www.w3.org/2000/svg" fill="none" width="30.613" height="30"><path d="M30.306 15q0 .368-.018.736t-.054.734q-.036.367-.09.731t-.126.725q-.072.362-.161.719-.09.357-.197.71-.107.352-.23.698-.125.347-.266.687-.14.34-.298.673-.157.333-.331.658-.174.325-.363.64-.19.316-.394.623-.204.306-.424.602-.22.295-.453.58t-.48.557q-.248.273-.508.534-.26.26-.533.507-.273.248-.558.481-.285.234-.58.453-.296.22-.602.424-.306.205-.622.394-.316.19-.641.363t-.658.33q-.332.158-.673.3-.34.14-.687.264-.346.124-.699.231-.352.107-.71.197-.356.089-.717.16-.362.073-.726.127-.364.054-.73.09-.367.036-.735.054-.368.018-.736.018t-.736-.018q-.368-.018-.734-.054-.367-.036-.73-.09-.365-.054-.726-.126-.361-.072-.719-.162-.357-.089-.71-.196-.351-.107-.698-.23-.347-.125-.687-.266-.34-.14-.673-.298-.333-.158-.658-.331-.325-.174-.64-.363-.316-.19-.622-.394-.307-.205-.602-.424-.296-.22-.58-.453-.285-.233-.558-.48-.273-.248-.533-.508t-.508-.534q-.247-.273-.481-.557-.234-.285-.453-.58-.22-.296-.424-.602-.204-.307-.394-.622-.19-.316-.363-.641t-.33-.658q-.158-.333-.3-.673-.14-.34-.264-.687-.124-.346-.231-.699-.107-.352-.196-.71-.09-.356-.162-.718-.071-.36-.126-.725-.054-.364-.09-.73-.036-.367-.054-.735Q.306 15.368.306 15t.018-.736q.018-.368.054-.734.036-.367.09-.731.055-.364.126-.725.072-.361.162-.719.09-.357.196-.71.107-.352.231-.698.124-.347.265-.687.14-.34.298-.673.158-.333.331-.658.174-.325.363-.64.19-.316.394-.623.205-.306.424-.601.22-.296.453-.58.234-.286.48-.558.248-.273.509-.534.26-.26.533-.507.273-.248.557-.481.285-.234.58-.453.296-.22.603-.424.306-.205.622-.394.315-.19.64-.363t.658-.33q.333-.158.673-.3.34-.14.687-.264.347-.124.699-.231.352-.107.71-.196.357-.09.718-.162.36-.072.725-.126.364-.054.73-.09.367-.036.735-.054.368-.018.736-.018t.736.018q.368.018.734.054.367.036.731.09t.726.126q.36.072.718.162.357.089.71.196.352.107.698.23.347.125.687.266.34.14.673.298.333.158.658.331.325.174.64.363.317.19.623.394.306.205.602.424.295.22.58.453t.558.48q.272.248.533.508.26.26.507.534.248.272.481.557.234.285.453.58.22.296.424.602.205.307.394.622.19.316.363.641.174.325.33.658.158.333.3.673.14.34.264.687.124.346.231.699.107.352.197.71.089.357.16.718.073.36.127.725.054.364.09.73.036.367.054.735.018.368.018.736Zm-2 0q0-2.48-.913-4.785-.99-2.504-2.894-4.407-1.904-1.904-4.408-2.895Q17.786 2 15.306 2t-4.785.913q-2.503.99-4.407 2.895Q4.21 7.71 3.219 10.215 2.306 12.52 2.306 15t.913 4.785q.99 2.504 2.895 4.407 1.904 1.904 4.407 2.895 2.305.913 4.785.913t4.785-.913q2.504-.99 4.408-2.895 1.903-1.903 2.894-4.407.913-2.305.913-4.785Z" fill-rule="evenodd" fill="#868686"/></svg>