<svg xmlns="http://www.w3.org/2000/svg" fill="none" width="30" height="30"><path d="M18.363 1.933A1.933 1.933 0 0 0 16.43 0h-3.866a1.933 1.933 0 0 0-1.933 1.933v3.866H1.933A1.933 1.933 0 0 0 0 7.732v4.832l.005.145a1.933 1.933 0 0 0 1.928 1.788h.966v13.531c0 1.068.866 1.933 1.933 1.933H25.13l.145-.005a1.933 1.933 0 0 0 1.788-1.928v-13.53h.966a1.933 1.933 0 0 0 1.933-1.934V7.732a1.933 1.933 0 0 0-1.933-1.933h-9.665V1.933Zm-5.8 0h3.865V5.8h-3.866V1.933ZM1.932 7.732H28.03v4.832H1.934V7.732Zm23.195 6.765H4.832v13.531h3.383v-6.282a.966.966 0 1 1 1.933 0v6.282h3.866v-6.282a.966.966 0 1 1 1.933 0v6.282h3.866v-6.282a.966.966 0 1 1 1.933 0v6.282h3.382v-13.53Z" fill-rule="evenodd" fill="#868686"/></svg>