<svg xmlns="http://www.w3.org/2000/svg" fill="none" width="30" height="30"><path d="M0 25.435C0 27.978 2.583 30 5.833 30h22.5C29.25 30 30 29.413 30 28.696V1.304C30 .587 29.25 0 28.333 0h-22.5C2.583 0 0 2.022 0 4.565v20.87ZM28 28H5.833q-1.748 0-2.902-.904Q2 26.368 2 25.435V4.565q0-.933.93-1.661Q4.086 2 5.834 2H28v26ZM26.665 2.609H5.832c-1.417 0-2.5.847-2.5 1.956v16.761c.611-.266 1.278-.402 2-.443.164-.009.33-.014.5-.014h20.833V2.61ZM5.332 18.88V4.713q.175-.104.5-.104h18.833v14.26H5.832q-.254 0-.5.012Zm-2 6.554c0-1.109 1.083-1.957 2.5-1.957h20.833v3.913H5.832c-1.417 0-2.5-.847-2.5-1.956Z" fill-rule="evenodd" fill="#868686"/><path d="M9.667 9.545h11.666c.917 0 1.667-.572 1.667-1.272C23 7.573 22.25 7 21.333 7H9.667C8.75 7 8 7.573 8 8.273s.75 1.272 1.667 1.272ZM8 12.727c0 .7.75 1.273 1.667 1.273h6.666C17.25 14 18 13.427 18 12.727s-.75-1.272-1.667-1.272H9.667c-.917 0-1.667.572-1.667 1.272Z" fill-rule="evenodd" fill="#868686"/></svg>