<svg xmlns="http://www.w3.org/2000/svg" fill="none" width="30" height="30"><path d="m23.923 3.586.686 1.473c.034.074.034.147.054.221 2.91.512 5.13 3.044 5.133 6.094v12.415a6.216 6.216 0 0 1-6.208 6.208H6.211a6.216 6.216 0 0 1-6.208-6.208V11.377A6.216 6.216 0 0 1 6.211 5.17h.512c.107-.302.328-.563.643-.71L15.673.583a6.185 6.185 0 0 1 4.744-.201 6.17 6.17 0 0 1 3.506 3.204Zm-4.353-.867a3.696 3.696 0 0 0-2.846.117L11.718 5.17H21.92l-.248-.533A3.705 3.705 0 0 0 19.57 2.72Zm2.384 8.658a6.216 6.216 0 0 0-6.207 6.208 6.216 6.216 0 0 0 6.207 6.207h5.357a3.728 3.728 0 0 1-3.723 3.724H6.211a3.728 3.728 0 0 1-3.723-3.724V11.377A3.728 3.728 0 0 1 6.21 7.654h17.377a3.728 3.728 0 0 1 3.723 3.723h-5.357Zm0 9.931h5.356v-7.446h-5.357a3.728 3.728 0 0 0-3.723 3.723 3.728 3.728 0 0 0 3.723 3.723Z" fill-rule="evenodd" fill="#868686"/><path d="M19.761 17.585a2.481 2.481 0 1 0 4.962 0 2.481 2.481 0 0 0-4.962 0Z" fill="#333"/></svg>