<svg xmlns="http://www.w3.org/2000/svg" fill="none" width="30" height="30"><defs><clipPath id="a"><rect width="30" height="30" rx="0"/></clipPath></defs><g clip-path="url(#a)"><path d="M11.766 19.605c-.465 0-1.024 0-1.489.092v1.382c.372-.092.838-.092 1.303-.092 1.023 0 1.303.276 1.303 1.013v.184h-1.49c-1.581 0-2.511.553-2.511 1.934 0 1.29.744 1.935 2.047 1.935 1.023 0 1.674-.369 1.954-.83l.186.737h1.395v-4.329c0-1.289-.651-2.026-2.698-2.026Zm1.117 4.421c-.187.46-.745.737-1.49.737-.65 0-.837-.184-.837-.645 0-.644.28-.737 1.117-.737h1.21v.645Zm5.768-3.04h-1.86v1.382h-1.396v1.842h1.395v1.382h1.861V24.21h1.396v-1.842h-1.396v-1.381Zm8.84-8.933L26 13.526c.373 1.105.56 2.21.56 3.408h1.86c0-1.75-.372-3.408-.93-4.881Zm-8.654-5.711 1.396-1.474c-1.489-.552-3.163-.92-4.838-.92-7.165 0-13.027 5.802-13.027 12.894H4.23c0-6.079 5.025-11.053 11.166-11.053 1.21 0 2.326.185 3.442.553Zm8.002 3.592 1.024-4.237a.739.739 0 0 0-.28-.829c-.278-.184-.558-.276-.837-.276l-4.28 1.013c-.372.092-.558.276-.651.645-.093.276 0 .645.279.92l1.024 1.014-8.56 8.474 1.302 1.29 8.56-8.474 1.024 1.013a.849.849 0 0 0 .65.276h.28c.093-.276.372-.553.465-.829Z" fill="#13F287"/></g></svg>