<svg xmlns="http://www.w3.org/2000/svg" fill="none" width="58" height="60"><defs><linearGradient x1=".5" y1="0" x2=".5" y2="1" id="a"><stop offset="0%" stop-color="#C4C4C4"/><stop offset="100%" stop-color="#757575"/></linearGradient></defs><path d="M23.067 25.714H2.648a2.666 2.666 0 0 1-1.876-.779A2.63 2.63 0 0 1 0 23.067V2.646A2.63 2.63 0 0 1 .772.78 2.666 2.666 0 0 1 2.648 0h20.419a2.648 2.648 0 0 1 2.647 2.648v20.419a2.648 2.648 0 0 1-2.647 2.647Zm31.835 0H34.484a2.666 2.666 0 0 1-1.876-.779 2.629 2.629 0 0 1-.772-1.868V2.646c-.003-.699.275-1.371.772-1.868A2.666 2.666 0 0 1 34.484 0h20.418c.705.002 1.38.283 1.877.78a2.63 2.63 0 0 1 .771 1.868v20.419a2.63 2.63 0 0 1-.771 1.868 2.666 2.666 0 0 1-1.877.78Zm-38.985-8.571H8.57V9.796h7.347v7.347Zm31.836 0h-7.347V9.796h7.347v7.347ZM2.648 58.776h20.419a2.648 2.648 0 0 0 2.647-2.649V35.71a2.648 2.648 0 0 0-2.647-2.648H2.647A2.648 2.648 0 0 0 0 35.71v20.418a2.63 2.63 0 0 0 .772 1.87 2.667 2.667 0 0 0 1.876.779ZM48.002 33.06v6.864h-6.706v-6.863h-9.46v9.933h9.46v3.59h-3.034v3.186h-6.425v10.23h6.425v-6.757h6.705v-6.66h3.035v-5.571h9.548V33.06h-9.548ZM15.917 50.204H8.57v-7.347h7.347v7.347Zm29.388 1.798h5.956v-6.696h6.289v13.47H45.305v-6.774Z" fill-rule="evenodd" fill="url(#a)"/></svg>