<svg xmlns="http://www.w3.org/2000/svg" fill="none" width="29" height="36"><defs><linearGradient x1=".5" y1="0" x2=".5" y2="1" id="a"><stop offset="0%" stop-color="#A8A8A8"/><stop offset="100%" stop-color="#757575"/></linearGradient></defs><path d="M8.36 5.298V.017H5.19v5.281h3.17Zm14.912 0V.017h-3.169v5.281h3.17Zm-5.281-.46V1.67h-7.394v3.169h7.394Zm7.394-2.709a3.169 3.169 0 0 1 3.17 3.17v22.013l-7.58 8.62H3.202a3.169 3.169 0 0 1-3.169-3.169V5.298A3.169 3.169 0 0 1 3.202 2.13v30.634h13.203l.001-8.979h8.98V2.13ZM21.16 14.805v-3.169H6.37v3.17h14.79Zm-5.282 6.338v-3.169H6.37v3.169h9.507Zm3.697 5.81h5.075l-5.076 5.773.001-5.773Z" fill-rule="evenodd" fill="url(#a)"/></svg>