<svg xmlns="http://www.w3.org/2000/svg" fill="none" width="57" height="60"><defs><linearGradient x1=".5" y1="0" x2=".5" y2="1" id="a"><stop offset="0%" stop-color="#C4C4C4"/><stop offset="100%" stop-color="#757575"/></linearGradient></defs><path d="M57 7.765C57 3.477 52.615 0 47.206 0H9.794C4.385 0 0 3.477 0 7.765v1.832C2.238 15.28 11.241 19.855 22.817 21c1.063-1.678 3.252-2.829 5.78-2.829 2.52 0 4.703 1.143 5.77 2.81C45.853 19.807 54.773 15.25 57 9.597v-1.83ZM22.524 25.18C13.345 24.373 5.33 21.74 0 18v34.32C0 56.562 4.387 60 9.795 60h37.412C52.616 60 57 56.562 57 52.32V18c-5.29 3.712-13.226 6.334-22.319 7.162-.898 1.953-3.282 3.35-6.083 3.35-2.791 0-5.17-1.388-6.074-3.332Z" fill-rule="evenodd" fill="url(#a)"/></svg>