<svg xmlns="http://www.w3.org/2000/svg" fill="none" width="91.233" height="90"><circle cx="45.783" cy="45" fill="#D8D8D8" fill-opacity=".2" r="45"/><path d="M46.273 53.64c.475.48 1.245.48 1.72 0l10.949-11.045a1.235 1.235 0 0 0-.015-1.72 1.209 1.209 0 0 0-1.705-.015l-8.872 8.95V28.227a1.23 1.23 0 0 0-.608-1.063c-.377-.219-.84-.219-1.217 0a1.23 1.23 0 0 0-.608 1.063V49.81l-8.872-8.95a1.209 1.209 0 0 0-1.705.015 1.235 1.235 0 0 0-.015 1.72l10.948 11.046Z" fill="#FFF" fill-opacity=".7"/><rect x="33.183" y="61.2" width="28.227" height="1.923" rx=".961" fill="#FFF" fill-opacity=".7"/></svg>