<svg xmlns="http://www.w3.org/2000/svg" fill="none" width="66" height="60"><defs><linearGradient x1=".5" y1="0" x2=".5" y2="1" id="a"><stop offset="0%" stop-color="#C4C4C4"/><stop offset="100%" stop-color="#757575"/></linearGradient><linearGradient x1=".5" y1="0" x2=".5" y2="1" id="b"><stop offset="0%" stop-color="#C4C4C4"/><stop offset="100%" stop-color="#757575"/></linearGradient></defs><path d="M56 30.514v24.517c-.008 2.74-2.216 4.961-4.941 4.969H4.944C2.217 59.993.008 57.773 0 55.03V11.969C.008 9.227 2.217 7.007 4.944 7h31.394a31.447 31.447 0 0 0-5.13 2.43c-4.274 2.528-7.79 6.012-10.46 10.36-4.606 7.522-5.749 16.041-5.901 21.867a4.638 4.638 0 0 0 1.31 3.379 4.622 4.622 0 0 0 4.511 1.257 4.653 4.653 0 0 0 3.304-3.336c2.126-8.33 7.495-18.115 20.91-19.629v3.917a5.927 5.927 0 0 0 3.625 5.48 5.87 5.87 0 0 0 6.422-1.267L56 30.514Z" fill-rule="evenodd" fill="url(#a)"/><path d="m64.882 16.946-8.958 7.886-3.897 3.427a1.72 1.72 0 0 1-1.291.579c-.912 0-1.79-.703-1.79-1.784v-8.19c-.152 0-.296-.016-.443-.003C24.55 20.903 20.633 34.47 20.019 41.61c-.024.275-.28.39-.493.39a.512.512 0 0 1-.525-.538c.254-9.915 3.826-31.554 29.948-32.799V1.783A1.778 1.778 0 0 1 50.739 0c.473.002.927.196 1.256.538l12.633 10.376a4.29 4.29 0 0 1 .254 6.032Z" fill-rule="evenodd" fill="url(#b)"/></svg>