<svg xmlns="http://www.w3.org/2000/svg" fill="none" width="24" height="24"><defs><clipPath id="a"><rect width="24" height="24" rx="0"/></clipPath></defs><g clip-path="url(#a)" fill-rule="evenodd" fill="#A0A0A0"><path d="M20.375 3.625V10q0 .062.012.122t.036.117q.023.057.057.108.035.051.078.095.044.043.095.078.051.034.108.057.057.024.117.036.06.012.122.012t.122-.012q.06-.012.117-.036.057-.023.108-.057.051-.035.095-.078.043-.044.078-.095.034-.05.057-.108.024-.057.036-.117.012-.06.012-.122V3q0-.062-.012-.122t-.036-.117q-.023-.057-.057-.108-.035-.051-.078-.095-.044-.043-.095-.078-.051-.034-.108-.057-.057-.024-.117-.036-.06-.012-.122-.012h-7q-.062 0-.122.012t-.117.036q-.057.023-.108.057-.051.035-.095.078-.043.044-.078.095-.034.051-.057.108-.024.057-.036.117-.012.06-.012.122t.012.122q.012.06.036.117.023.057.057.108.035.051.078.095.044.043.095.078.051.034.108.057.057.024.117.036.06.012.122.012h6.375zm-15.875 0H9q.062 0 .122-.012t.117-.036q.057-.023.108-.057.051-.035.095-.078.043-.044.078-.095.034-.051.057-.108.024-.057.036-.117.012-.06.012-.122t-.012-.122q-.012-.06-.036-.117-.023-.057-.057-.108-.035-.051-.078-.095-.044-.043-.095-.078-.05-.034-.108-.057-.057-.024-.117-.036-.06-.012-.122-.012H4.5q-.88 0-1.503.622-.622.623-.622 1.503v15q0 .88.622 1.503.623.622 1.503.622h15q.88 0 1.503-.622.622-.623.622-1.503v-4.763q0-.062-.012-.122t-.036-.117q-.023-.057-.057-.108-.035-.052-.078-.095-.044-.044-.095-.078-.051-.034-.108-.058-.057-.023-.117-.035-.06-.012-.122-.012t-.122.012q-.06.012-.117.035-.057.024-.108.058t-.095.078q-.043.043-.078.095-.034.05-.057.108-.024.057-.036.117-.012.06-.012.122V19.5q0 .363-.256.619t-.619.256h-15q-.362 0-.619-.256-.256-.257-.256-.619v-15q0-.362.256-.619.257-.256.619-.256z"/><path d="m13.341 11.542 7.65-7.65q.088-.088.136-.203.047-.115.047-.24 0-.123-.047-.238-.048-.115-.136-.203-.088-.088-.202-.135-.115-.048-.24-.048h-.032q-.116.007-.222.054t-.188.129l-7.65 7.65q-.087.088-.135.203-.048.115-.048.239 0 .124.048.24.048.114.135.202.088.088.203.135.115.048.24.048.124 0 .239-.048.114-.047.202-.135z"/></g></svg>