<svg xmlns="http://www.w3.org/2000/svg" fill="none" width="30" height="30"><defs><clipPath id="a"><rect width="30" height="30" rx="0"/></clipPath></defs><g clip-path="url(#a)"><path d="M24.272 25.04a.938.938 0 1 1-1.313-1.33 11.081 11.081 0 0 0 3.291-7.876c0-6.213-5.037-11.25-11.25-11.25S3.75 9.621 3.75 15.834a11.081 11.081 0 0 0 3.29 7.875.938.938 0 1 1-1.33 1.322A13.003 13.003 0 0 1 15 2.813c7.209 0 13.068 5.813 13.125 13.021a12.938 12.938 0 0 1-3.853 9.207Zm-21.46-7.227a.937.937 0 1 1 0-1.875h1.876a.938.938 0 0 1 0 1.875H2.813Zm22.5 0a.937.937 0 1 1 0-1.875h1.875a.938.938 0 0 1 0 1.875h-1.875ZM5.898 8.166a.941.941 0 1 1 1.331-1.332l.938.938a.941.941 0 0 1-1.332 1.331l-.937-.937Zm15.937 15.937a.941.941 0 0 1 1.332-1.331l.937.937a.941.941 0 0 1-1.331 1.332l-.938-.938Zm.938-17.269a.941.941 0 1 1 1.331 1.332l-.937.937a.941.941 0 1 1-1.332-1.331l.938-.938ZM6.834 22.772a.941.941 0 0 1 1.332 1.331l-.938.938a.941.941 0 0 1-1.331-1.332l.937-.937Zm7.229-18.084a.937.937 0 1 1 1.874 0v1.875a.937.937 0 1 1-1.874 0V4.688Zm3.45 10.134-.938.253c-.688.162-1.362.379-2.016.647a1.228 1.228 0 0 0-.356 1.566.834.834 0 0 0 1.21.393c.74-.68 1.426-1.416 2.053-2.203l.225-.253.468-.562-.646.159Zm-1.426-1.566.938-.253c.74-.187 1.528-.375 2.316-.553l.759-.178.3-.066a.937.937 0 0 1 .938 1.5c0 .047-.094.132-.188.235l-.497.618c-.525.638-1.05 1.275-1.556 1.875l-.225.263a15.883 15.883 0 0 1-2.475 2.569 2.71 2.71 0 0 1-3.872-1.107 3.103 3.103 0 0 1 1.012-4.021c.813-.394 1.668-.69 2.55-.882Z" fill="#F6D30C"/></g></svg>