<svg xmlns="http://www.w3.org/2000/svg" fill="none" width="90" height="90"><circle cx="45" cy="45" fill="#D8D8D8" fill-opacity=".2" r="45"/><path d="M39.477 42.339c.485.481 1.27.481 1.755 0a1.228 1.228 0 0 0 0-1.744l-5.194-5.162h22.52c.686 0 1.242-.552 1.242-1.233s-.556-1.233-1.241-1.233H36.038l5.194-5.162a1.228 1.228 0 0 0 0-1.744 1.247 1.247 0 0 0-1.755 0l-7.313 7.267a1.225 1.225 0 0 0 0 1.744l7.313 7.267ZM59.709 55.736a1.24 1.24 0 0 0-.049-.104l-.002-.005a1.232 1.232 0 0 0-.222-.299l-7.313-7.267a1.247 1.247 0 0 0-1.756 0 1.225 1.225 0 0 0 0 1.744l5.195 5.162h-22.52c-.686 0-1.242.552-1.242 1.233s.556 1.233 1.241 1.233h22.521l-5.195 5.162a1.225 1.225 0 0 0 0 1.744c.485.481 1.271.481 1.756 0l7.313-7.267c.364-.36.455-.89.273-1.336Z" fill="#FFF" fill-opacity=".7"/></svg>