<svg xmlns="http://www.w3.org/2000/svg" fill="none" width="20.5" height="20.5"><path d="M14.029 19.24q-1.805.76-3.779.76-1.976 0-3.785-.77-1.749-.744-3.1-2.1-1.353-1.358-2.096-3.115Q.5 12.193.5 10.202q.018-1.979.79-3.785.75-1.751 2.099-3.096 1.354-1.349 3.103-2.08 1.816-.759 3.806-.74 1.979.017 3.778.79 1.744.75 3.084 2.104 1.343 1.357 2.078 3.118Q20 8.339 20 10.348q-.018 1.959-.79 3.75-.747 1.732-2.092 3.068-1.348 1.34-3.09 2.073Zm-7.76.45q1.904.81 3.981.81 2.075 0 3.973-.8 1.83-.772 3.247-2.179 1.414-1.404 2.2-3.226.811-1.883.83-3.942 0-2.115-.8-4.033-.773-1.85-2.185-3.277-1.408-1.423-3.241-2.21Q12.382.018 10.302 0 8.21-.018 6.3.78q-1.84.769-3.263 2.187Q1.618 4.38.831 6.22.02 8.119 0 10.198q0 2.096.809 4.011.78 1.848 2.201 3.274 1.42 1.425 3.26 2.207Z" fill-rule="evenodd" fill="#FFF" fill-opacity=".2"/><path d="M12.991 7.769c.486.41 1.083.988 1.515 1.367a.32.32 0 0 1 .114.306c-.041.072-.09.14-.144.203-.422.51-4.588 5.312-4.588 5.312s-.233.293-.287.293h-.023c-.102-.008-.157-.17-.186-.254-.477-1.25-2.903-6.575-3.517-8.2v-.113l.007-.017a.303.303 0 0 1 .075-.115l.027-.02a.208.208 0 0 1 .084-.03c.1-.013 5.003.857 6.516 1.125l.219.039c.058.02.112.048.16.085l.028.019Zm-2.723 1.835L7.207 7.22l4.953.868-1.892 1.516ZM6.79 7.458l3.22 2.598-.465 3.798-2.755-6.396Zm4.168 2.237 1.778-1.401 1.043.913-2.821.488Zm2.719.054-3.133.48-.45 3.622 3.583-4.102Z" fill-rule="evenodd" fill="#9E9E9E"/></svg>