<svg xmlns="http://www.w3.org/2000/svg" fill="none" width="37" height="30"><path d="M32.62 4.663c.136-.102.306-.22.51-.357l.662-.611c.102-.102.323-.357.663-.765.51-.646.934-1.41 1.274-2.294l-2.701 1.122c-.85.34-1.436.5-1.759.484-.323-.017-.688-.212-1.095-.586-2.719-1.937-5.505-2.175-8.36-.713-2.854 1.46-4.111 4.23-3.771 8.307-2.005.034-4.222-.45-6.651-1.452-2.43-1.003-4.41-2.167-5.938-3.492L2.497 1.401c-.203.306-.399.722-.586 1.249a8.044 8.044 0 0 0-.382 1.452c-.204 1.563 0 2.957.612 4.18a9.017 9.017 0 0 0 2.548 3.109c-.442.068-1.002-.017-1.682-.255l-1.58-.56a6.952 6.952 0 0 0 .994 3.797c.696 1.172 1.538 2.064 2.523 2.675.476.272.934.485 1.376.638.442.153.765.28.969.382a5.738 5.738 0 0 1-1.58.204c-.578 0-1.122-.034-1.631-.102.17.713.518 1.41 1.045 2.09.526.679.993 1.189 1.4 1.529.273.203.587.399.944.586.357.186.705.365 1.045.535.611.238 1.113.365 1.503.382.391.017.705.076.943.178a1.853 1.853 0 0 1-.458.408l-.561.357a13.82 13.82 0 0 1-4.74 1.962A19.673 19.673 0 0 1 0 26.58c.204.204.612.46 1.223.765l1.478.714a21.049 21.049 0 0 0 8.614 1.86c3.024.017 5.895-.518 8.614-1.606a20.076 20.076 0 0 0 4.561-2.599 18.454 18.454 0 0 0 3.696-3.67c1.19-1.563 2.14-3.134 2.854-4.714.714-1.58 1.257-3.356 1.63-5.326.137-.646.222-1.275.256-1.886l.102-1.886c.067-.544.254-.952.56-1.223l1.274-1.122c.238-.237.561-.594.97-1.07.407-.476.695-.884.865-1.223-.611.17-1.265.373-1.962.611a9.261 9.261 0 0 1-2.115.46Z" fill="#414141"/></svg>