<svg xmlns="http://www.w3.org/2000/svg" fill="none" width="48.609" height="50"><path d="M23.983.765a1.37 1.37 0 0 1 .535-.006c.419-.076.865.047 1.186.368l9.678 9.678a1.34 1.34 0 0 1-.006 1.9 1.345 1.345 0 0 1-1.9.006L25.613 4.85v34.982c0 .743-.599 1.345-1.349 1.345a1.347 1.347 0 0 1-1.348-1.345V4.78l-7.93 7.93a1.34 1.34 0 0 1-1.9-.006 1.345 1.345 0 0 1-.006-1.9l9.678-9.678a1.334 1.334 0 0 1 1.224-.362Zm20.512 21.539h-9.446a1.348 1.348 0 1 1 0-2.696h10.785c1.489 0 2.695 1.2 2.695 2.684v24.289c0 1.482-1.2 2.684-2.695 2.684H2.696A2.688 2.688 0 0 1 0 46.58V22.292c0-1.482 1.2-2.684 2.696-2.684H13.48a1.348 1.348 0 1 1 0 2.696H4.034c-.728 0-1.338.6-1.338 1.34v21.585c0 .74.6 1.34 1.338 1.34h40.461c.729 0 1.338-.6 1.338-1.34V23.643c0-.74-.599-1.34-1.338-1.34Z" fill-rule="evenodd" fill="#B9B9B9"/></svg>