<svg xmlns="http://www.w3.org/2000/svg" fill="none" width="24" height="24"><path d="M23.638 14.903c-1.602 6.428-8.114 10.34-14.543 8.738C2.668 22.038-1.244 15.526.359 9.098 1.961 2.67 8.473-1.244 14.9.36c6.43 1.603 10.342 8.115 8.74 14.544z" fill="#20B598"/><path d="M13.518 10.584V8.756h4.186v-2.79H6.308v2.79h4.185v1.828c-3.402.157-5.96.83-5.96 1.638 0 .808 2.558 1.48 5.96 1.638v5.861h3.025v-5.863c3.394-.157 5.948-.83 5.948-1.637 0-.806-2.552-1.48-5.948-1.637zm-1.501 2.809c.978 0 1.416-.026 1.501-.033h-.003c3-.133 5.238-.657 5.238-1.282s-2.238-1.148-5.238-1.282v2.044c-.084.008-.551.047-1.485.047-.777 0-1.34-.034-1.537-.048v-2.044c-3.006.134-5.25.657-5.25 1.283 0 .627 2.244 1.15 5.25 1.282.194.01.746.033 1.524.033z" fill-rule="evenodd" fill="#FFF" fill-opacity=".8"/></svg>