<svg xmlns="http://www.w3.org/2000/svg" fill="none" width="48" height="48"><path d="M48 24c0 13.255-10.745 24-24 24S0 37.255 0 24 10.745 0 24 0s24 10.745 24 24Z" fill="#B5B5B5"/><path d="M35.475 12h-22.29v5.558h8.454v8.169h5.381v-8.17h8.455V12Z" fill="#FFF"/><path d="M24.33 21.503c7.913 0 14.329 1.45 14.329 3.238 0 1.584-5.027 2.901-11.67 3.183v11.53h-5.422V27.92C14.975 27.629 10 26.316 10 24.74c0-1.788 6.416-3.238 14.33-3.238Zm-12.763 2.82c0 1.387 5.714 2.511 12.762 2.511s12.762-1.124 12.762-2.511-5.714-2.512-12.762-2.512-12.762 1.125-12.762 2.512Z" fill-rule="evenodd" fill="#FFF"/></svg>