<svg xmlns="http://www.w3.org/2000/svg" xmlns:xlink="http://www.w3.org/1999/xlink" fill="none" version="1.1" width="28" height="28" viewBox="0 0 28 28"><g><g><g><path d="M25.66533125,14.00001701171875C25.66533125,14.00001701171875,25.66533125,19.83338701171875,25.66533125,19.83338701171875C25.66533125,23.33338701171875,23.33203125,25.66668701171875,19.83203125,25.66668701171875C19.83203125,25.66668701171875,8.16536125,25.66668701171875,8.16536125,25.66668701171875C4.66536125,25.66668701171875,2.33203125,23.33338701171875,2.33203125,19.83338701171875C2.33203125,19.83338701171875,2.33203125,14.00001701171875,2.33203125,14.00001701171875C2.33203125,10.82668701171875,4.24536125,8.61001801171875,7.22036125,8.23668421171875C7.52370125,8.19001751171875,7.83870125,8.16668701171875,8.16536125,8.16668701171875C8.16536125,8.16668701171875,19.83203125,8.16668701171875,19.83203125,8.16668701171875C20.13533125,8.16668701171875,20.42703125,8.17833941171875,20.70703125,8.22500611171875C23.71703125,8.57500601171875,25.66533125,10.80335701171875,25.66533125,14.00001701171875Z" fill="#9B9B9B" fill-opacity="1"/><path d="M20.81143125,7.48211101171875Q20.40573125,7.41668701171875,19.83203125,7.41668701171875L8.16536125,7.41668701171875Q7.62351125,7.41668701171875,7.11664125,7.49382601171875Q4.59724125,7.81321801171875,3.08977825,9.58183701171875Q1.58203125,11.35079701171875,1.58203125,14.00001701171875L1.58203125,19.83338701171875Q1.58203125,22.76898701171875,3.4058712499999997,24.59288701171875Q5.22970125,26.41668701171875,8.16536125,26.41668701171875L19.83203125,26.41668701171875Q22.76773125,26.41668701171875,24.59153125,24.59288701171875Q26.41533125,22.76898701171875,26.41533125,19.83338701171875L26.41533125,14.00001701171875Q26.41533125,11.33098701171875,24.88273125,9.55501701171875Q23.35383125,7.78328501171875,20.81143125,7.48211101171875ZM20.58373125,8.96480101171875Q20.60203125,8.96784701171875,20.62043125,8.96998701171875Q22.59473125,9.199557011718749,23.74713125,10.53500701171875Q24.91533125,11.88873701171875,24.91533125,14.00001701171875L24.91533125,19.83338701171875Q24.91533125,22.14768701171875,23.53083125,23.53218701171875Q22.14633125,24.91668701171875,19.83203125,24.91668701171875L8.16536125,24.91668701171875Q5.8510212500000005,24.91668701171875,4.46653125,23.53218701171875Q3.08203125,22.14768701171875,3.08203125,19.83338701171875L3.08203125,14.00001701171875Q3.08203125,11.90331701171875,4.2313712500000005,10.55486701171875Q5.364471249999999,9.22546701171875,7.31375125,8.98084901171875Q7.32410125,8.979549011718749,7.33441125,8.97796301171875Q7.73270125,8.91668701171875,8.16536125,8.91668701171875L19.83203125,8.91668701171875Q20.29503125,8.91668701171875,20.58373125,8.96480101171875Z" fill-rule="evenodd" fill="#9B9B9B" fill-opacity="1"/></g><g><path d="M20.051109375,5.057522988281249Q21.372309375,6.36048298828125,21.460409374999998,8.18887298828125Q21.464009375,8.26266298828125,21.453009375,8.33571298828125Q21.442109375,8.40877298828125,21.417209375,8.47830298828125Q21.392209375,8.54783298828125,21.354209375,8.611152988281251Q21.316209375,8.67447298828125,21.266509375,8.72916298828125Q21.216909375,8.78385298828125,21.157509375,8.827802988281249Q21.098109375,8.87174298828125,21.031309375,8.90327298828125Q20.964509375,8.934792988281249,20.892809375,8.95267298828125Q20.821209375000002,8.97055298828125,20.747409375,8.974112988281249Q20.667209375,8.97797298828125,20.588009375,8.96477298828125Q20.299309375,8.91666298828125,19.836309375,8.91666298828125L8.169609375,8.91666298828125Q7.7369463750000005,8.91666298828125,7.338652375,8.97793298828125Q7.265642575,8.989162988281251,7.191844575,8.98594298828125Q7.118046375,8.98271298828125,7.046296375,8.96515298828125Q6.974545375,8.947582988281251,6.907600375,8.91636298828125Q6.840654375,8.885142988281249,6.781086375,8.84146298828125Q6.7215183750000005,8.797772988281249,6.671617375,8.74331298828125Q6.621716375,8.68884298828125,6.583399375,8.62569298828125Q6.545082375,8.562542988281251,6.519822375,8.49312298828125Q6.494562375,8.423712988281249,6.4833303749999995,8.350702988281249Q6.447032375,8.11476298828125,6.553788375,7.90124298828125Q6.841550375,7.32572298828125,7.370946375,6.79632298828125L11.161799375000001,2.99379898828125Q12.582639375,1.58331298828125,14.586279375,1.58331298828125Q16.589909374999998,1.58331298828125,18.008009375,2.99104398828125L20.051109375,5.057522988281249ZM16.951219375,4.05558298828125L18.987909375,6.11564298828125L18.995109375,6.12282298828125Q19.578309375,6.69685298828125,19.811309375,7.41666298828125L8.870579375,7.41666298828125L12.224089375,4.05282298828125Q13.200749375000001,3.08331298828125,14.586279375,3.08331298828125Q15.971809375,3.08331298828125,16.951219375,4.05558298828125Z" fill-rule="evenodd" fill="#9B9B9B" fill-opacity="1"/></g><g><path d="M23.33333,19.99998298828125L26.83333,19.99998298828125Q26.9072,19.99998298828125,26.97965,19.98557298828125Q27.0521,19.97115298828125,27.120350000000002,19.94289298828125Q27.188589999999998,19.914622988281252,27.25001,19.87358298828125Q27.31143,19.83254298828125,27.36366,19.78031298828125Q27.4159,19.728072988281248,27.45694,19.66665298828125Q27.49797,19.60523298828125,27.52624,19.53699298828125Q27.55451,19.46874298828125,27.56892,19.39629298828125Q27.58333,19.32385298828125,27.58333,19.24998298828125Q27.58333,19.17611298828125,27.56892,19.10366298828125Q27.55451,19.03121298828125,27.52624,18.962962988281248Q27.49797,18.894722988281252,27.45694,18.83330298828125Q27.4159,18.77188298828125,27.36366,18.71965298828125Q27.31143,18.66741298828125,27.25001,18.62637298828125Q27.188589999999998,18.58534298828125,27.120350000000002,18.55707298828125Q27.0521,18.52880298828125,26.97965,18.51439298828125Q26.9072,18.49998298828125,26.83333,18.49998298828125L23.33333,18.49998298828125Q22.68149,18.49998298828125,22.21575,18.03423298828125Q21.75,17.56848298828125,21.75,16.91664298828125Q21.75,16.26480298828125,22.21575,15.79906298828125Q22.68149,15.33331298828125,23.33333,15.33331298828125L26.83333,15.33331298828125Q26.9072,15.33331298828125,26.97965,15.318901988281251Q27.0521,15.30449098828125,27.120350000000002,15.27622298828125Q27.188589999999998,15.24795398828125,27.25001,15.20691498828125Q27.31143,15.16587598828125,27.36366,15.11364298828125Q27.4159,15.06140998828125,27.45694,14.99999098828125Q27.49797,14.93857098828125,27.52624,14.87032598828125Q27.55451,14.80207998828125,27.56892,14.72963098828125Q27.58333,14.65718148828125,27.58333,14.58331298828125Q27.58333,14.50944448828125,27.56892,14.43699498828125Q27.55451,14.36454598828125,27.52624,14.29629998828125Q27.49797,14.22805498828125,27.45694,14.16663498828125Q27.4159,14.10521598828125,27.36366,14.05298298828125Q27.31143,14.00074998828125,27.25001,13.95971098828125Q27.188589999999998,13.91867198828125,27.120350000000002,13.89040298828125Q27.0521,13.86213498828125,26.97965,13.847723988281249Q26.9072,13.83331298828125,26.83333,13.83331298828125L23.33333,13.83331298828125Q22.06017,13.83331298828125,21.155087,14.73839998828125Q20.25,15.64348298828125,20.25,16.91664298828125Q20.25,18.18980298828125,21.155087,19.094892988281252Q22.06017,19.99998298828125,23.33333,19.99998298828125Z" fill-rule="evenodd" fill="#000000" fill-opacity="1"/></g><g style="opacity:0;"></g></g></g></svg>