<svg xmlns="http://www.w3.org/2000/svg" fill="none" width="18" height="18"><circle cx="9" cy="9" fill="#FFF" fill-opacity=".05" r="9"/><path d="M5.457 7.227c1.957-1.636 5.13-1.636 7.086 0l.236.197a.186.186 0 010 .297l-.806.673a.143.143 0 01-.177 0l-.324-.27c-1.365-1.142-3.579-1.142-4.944 0l-.347.29a.143.143 0 01-.177 0l-.806-.674a.186.186 0 010-.296l.259-.217zm8.753 1.394l.717.6a.186.186 0 010 .296l-3.234 2.704a.286.286 0 01-.354 0L9.044 10.3a.072.072 0 00-.088 0l-2.295 1.92a.286.286 0 01-.354 0L3.073 9.517a.186.186 0 010-.297l.717-.6a.286.286 0 01.355 0l2.295 1.92c.024.02.064.02.088 0l2.295-1.92a.286.286 0 01.354 0l2.295 1.92c.024.02.064.02.088 0l2.295-1.92a.286.286 0 01.355 0z" fill="#3B99FC"/></svg>
