<svg xmlns="http://www.w3.org/2000/svg" fill="none" width="30" height="30"><path d="M23.923 3.586l.686 1.473c.034.074.034.147.054.221 2.91.512 5.13 3.044 5.133 6.094v12.415a6.216 6.216 0 01-6.208 6.208H6.211a6.216 6.216 0 01-6.208-6.208V11.377A6.216 6.216 0 016.211 5.17h.512c.107-.302.328-.563.643-.71L15.673.583a6.185 6.185 0 014.744-.201 6.17 6.17 0 013.506 3.204zm-4.353-.867a3.696 3.696 0 00-2.846.117L11.72 5.17H21.92l-.248-.533A3.705 3.705 0 0019.57 2.72zm2.384 8.658a6.216 6.216 0 00-6.207 6.208 6.216 6.216 0 006.207 6.207h5.357a3.728 3.728 0 01-3.723 3.724H6.211a3.728 3.728 0 01-3.723-3.724V11.377A3.728 3.728 0 016.21 7.654h17.377a3.728 3.728 0 013.723 3.723h-5.357zm0 9.931h5.357v-7.446h-5.357a3.728 3.728 0 00-3.723 3.723 3.728 3.728 0 003.723 3.723z" fill-rule="evenodd" fill="#FFF"/><path d="M19.761 17.585a2.481 2.481 0 104.962 0 2.481 2.481 0 00-4.962 0z" fill="#FFF"/></svg>
