<svg xmlns="http://www.w3.org/2000/svg" fill="none" width="33" height="30"><path d="M25.714 21h6.857c.145 0 .287-.012.429-.022v.165C33 26.014 29.014 30 24.143 30H8.857C3.986 30 0 26.014 0 21.143V8.857C0 3.986 3.986 0 8.857 0h15.286C29.014 0 33 3.986 33 8.857v.165c-.142-.01-.284-.022-.429-.022h-6.857c-3.3 0-6 2.7-6 6s2.7 6 6 6ZM7.93 9.429h9a1.5 1.5 0 0 0 0-3h-9a1.5 1.5 0 0 0 0 3Z" fill-rule="evenodd" fill="#FFF" style="opacity:.6839192509651184"/><path d="M26.88 12h5.295c.456 0 .825.385.825.86v4.28a.878.878 0 0 1-.242.608.809.809 0 0 1-.583.252H26.88C25.296 18 24 16.65 24 15s1.296-3 2.88-3ZM26 15a1 1 0 1 0 2 0 1 1 0 0 0-2 0Z" fill-rule="evenodd" fill="#FFF" style="opacity:.6839192509651184"/></svg>