<svg xmlns="http://www.w3.org/2000/svg" fill="none" width="19.99" height="20.859"><path d="M9.995 0C4.483 0 0 4.678 0 10.43c0 5.751 4.483 10.43 9.995 10.43s9.995-4.679 9.995-10.43C19.99 4.678 15.507 0 9.995 0zm0 19.99c-5.051 0-9.162-4.29-9.162-9.56 0-5.271 4.11-9.56 9.162-9.56 5.052 0 9.162 4.289 9.162 9.56 0 5.27-4.11 9.56-9.162 9.56zm4.261-13.594h-1.157l-.683-1.448c-.381-.809-1.322-1.146-2.1-.748L6.03 6.398h-.3c-.864 0-1.57.734-1.57 1.639v5.416c0 .902.704 1.638 1.57 1.638h8.525c.864 0 1.57-.733 1.57-1.638V8.034c.002-.902-.703-1.638-1.568-1.638zM10.685 4.98a.695.695 0 01.323-.08c.272 0 .535.16.663.432l.5 1.064H7.923l2.763-1.416zm4.308 6.63h-1.667c-.458 0-.833-.388-.833-.869 0-.48.373-.87.833-.87h1.667v1.74zm0-2.605h-1.667c-.919 0-1.667.78-1.667 1.739 0 .958.748 1.739 1.667 1.739h1.667v.97c0 .424-.33.769-.737.769H5.734c-.406 0-.736-.345-.736-.769V8.034c0-.424.33-.768.736-.768h8.524c.407 0 .737.344.737.768v.97h-.002zm-2.082 1.739c0 .239.186.433.415.433.23 0 .416-.194.416-.433a.425.425 0 00-.416-.434.424.424 0 00-.415.434z" fill="#A0A0A0"/></svg>
