<svg xmlns="http://www.w3.org/2000/svg" fill="none" width="50" height="49"><path d="M25 49q.601 0 1.202-.03.6-.029 1.2-.088.598-.059 1.193-.147.595-.088 1.185-.206.59-.117 1.173-.263.583-.146 1.159-.321.575-.175 1.142-.377.566-.203 1.122-.433.555-.23 1.1-.487.543-.257 1.073-.54.53-.284 1.047-.594.515-.309 1.016-.643.5-.334.983-.692.483-.359.948-.74.465-.382.91-.786.446-.404.871-.829.425-.425.83-.87.403-.447.785-.911.381-.465.74-.948.358-.483.692-.983.334-.5.643-1.017.31-.515.593-1.046.284-.53.54-1.074.258-.544.488-1.1.23-.555.433-1.121.202-.566.377-1.142t.32-1.159q.147-.583.264-1.173.118-.59.206-1.185.088-.595.147-1.194.059-.598.089-1.199.029-.6.029-1.202 0-.601-.03-1.202-.029-.6-.088-1.2-.059-.598-.147-1.193-.088-.595-.206-1.185-.117-.59-.263-1.173-.146-.583-.321-1.159-.175-.576-.377-1.142-.203-.566-.433-1.122-.23-.555-.487-1.1-.257-.543-.54-1.073-.284-.53-.594-1.046-.309-.516-.643-1.016t-.692-.984q-.359-.483-.74-.948-.382-.465-.786-.91-.404-.446-.829-.871-.425-.425-.87-.83-.447-.403-.911-.785-.465-.381-.948-.74-.483-.358-.983-.692-.5-.334-1.017-.643-.515-.31-1.046-.593-.53-.284-1.074-.54-.544-.258-1.1-.488-.555-.23-1.121-.433-.566-.202-1.142-.377t-1.159-.32Q30.37.587 29.78.47q-.59-.118-1.185-.206Q28 .177 27.4.118 26.803.059 26.202.03 25.602 0 25 0q-.601 0-1.202.03-.6.029-1.2.088-.598.059-1.193.147-.595.088-1.185.206-.59.117-1.173.263-.583.146-1.159.321-.576.175-1.142.377-.566.203-1.122.433-.555.23-1.1.487-.543.257-1.073.54-.53.284-1.046.594-.516.309-1.016.643t-.984.692q-.483.359-.948.74-.465.382-.91.786-.446.404-.871.829-.425.425-.83.87-.403.446-.785.911-.381.465-.74.948-.358.483-.692.984-.334.5-.643 1.016-.31.515-.593 1.046-.284.53-.54 1.074-.258.544-.488 1.1-.23.555-.433 1.121-.202.567-.377 1.142-.175.576-.32 1.159-.147.583-.264 1.173-.118.59-.206 1.185Q.677 21.5.618 22.1q-.059.598-.088 1.199-.03.6-.03 1.202 0 .601.03 1.202.029.6.088 1.2.059.598.147 1.193.088.595.206 1.185.117.59.263 1.173.146.583.321 1.159.175.576.377 1.142.203.566.433 1.122.23.555.487 1.1.257.543.54 1.073.284.53.594 1.047.309.515.643 1.016.334.5.692.983.359.483.74.948.382.465.786.91.404.446.829.871.425.425.87.83.446.403.911.785.465.381.948.74.483.358.984.692.5.334 1.016.643.515.31 1.046.593.53.284 1.074.54.544.258 1.1.488.555.23 1.121.433.567.202 1.142.377.576.175 1.159.32.583.147 1.173.264.59.118 1.185.206.595.088 1.194.147.598.059 1.199.089.6.029 1.202.029zm-2.429-14.603c-.902.498-2.014.748-3.334.748h-6.065v-21.12h4.689V32.79h2.355a2.26 2.26 0 0 0 1.667-.693c.459-.462.688-1.009.688-1.64V14.025h4.689v18.767h2.355c.638 0 1.187-.231 1.645-.693.459-.462.688-1.009.688-1.64V14.025h4.71v13.102c0 2.185-.786 4.068-2.36 5.648q-2.36 2.37-5.663 2.37h-6.064v-.747z" fill-rule="evenodd" fill="#FFF"/></svg>